<?xml version="1.0" standalone="no"?>
<!DOCTYPE svg PUBLIC "-//W3C//DTD SVG 20010904//EN"
 "http://www.w3.org/TR/2001/REC-SVG-20010904/DTD/svg10.dtd">
<svg version="1.0" xmlns="http://www.w3.org/2000/svg"
 width="700.000000pt" height="700.000000pt" viewBox="0 0 700.000000 700.000000"
 preserveAspectRatio="xMidYMid meet">
<metadata>
Created by potrace 1.14, written by Peter Selinger 2001-2017
</metadata>
<g transform="translate(0.000000,700.000000) scale(0.100000,-0.100000)"
fill="#000000" stroke="none">
<path d="M3407 6744 c-1 -1 -38 -5 -83 -8 -44 -4 -91 -9 -105 -11 -13 -3 -50
-10 -83 -16 -154 -28 -376 -108 -528 -191 -619 -336 -990 -965 -989 -1674 0
-68 2 -137 5 -156 3 -18 8 -55 11 -83 19 -162 82 -374 160 -541 l46 -99 35
120 c41 140 70 205 133 289 25 34 46 70 48 81 7 49 15 67 44 95 30 28 52 38
134 59 23 6 51 20 64 32 32 30 185 106 259 129 55 17 83 23 182 36 14 1 48 -4
77 -12 57 -16 99 -52 145 -123 28 -45 29 -78 4 -111 -7 -8 -13 -31 -15 -50 -4
-48 -47 -126 -133 -240 -69 -92 -71 -97 -72 -155 -1 -35 -9 -75 -19 -96 -37
-76 -128 -149 -184 -149 -10 0 -24 -12 -30 -27 -28 -64 -40 -109 -33 -128 12
-33 1 -174 -23 -294 l-23 -114 60 -39 c93 -59 289 -153 405 -193 88 -30 198
-57 326 -79 134 -24 424 -24 546 -1 13 3 41 7 64 11 134 20 325 81 481 155 62
29 234 127 251 143 1 1 -9 60 -22 130 -15 84 -23 166 -23 235 0 86 -4 115 -21
152 -19 42 -25 47 -61 53 -31 5 -53 19 -94 59 -73 72 -103 143 -87 204 6 24 0
37 -39 88 -87 111 -149 212 -161 261 -6 27 -18 61 -25 76 -8 14 -14 37 -14 50
0 50 87 155 149 180 40 17 148 11 236 -11 88 -23 226 -86 295 -136 25 -18 63
-36 85 -39 84 -14 149 -69 160 -135 5 -32 32 -78 62 -109 41 -43 142 -304 143
-370 0 -38 19 -15 60 72 61 133 126 333 144 445 30 183 40 389 25 516 -5 39
-10 88 -13 110 -9 76 -45 225 -81 331 -169 507 -566 930 -1066 1137 -165 68
-370 119 -539 133 -78 6 -269 12 -273 8z m253 -298 c67 -6 106 -12 150 -22 14
-3 36 -8 50 -10 38 -7 190 -54 230 -71 141 -60 331 -171 400 -233 14 -12 32
-27 40 -34 32 -23 80 -94 136 -201 68 -132 71 -136 194 -295 175 -226 216
-332 166 -429 -37 -70 -97 -93 -157 -59 -21 12 -39 25 -39 29 0 18 -118 55
-230 73 -19 3 -46 8 -60 11 -14 3 -38 8 -55 10 -16 3 -129 39 -250 80 -277 94
-367 116 -564 140 -58 7 -250 7 -326 0 -152 -13 -290 -44 -459 -101 -72 -25
-170 -58 -217 -74 -47 -16 -155 -43 -240 -60 -192 -38 -206 -43 -262 -86 -52
-41 -91 -48 -130 -25 -44 25 -68 66 -74 125 -10 94 39 188 205 396 46 58 104
143 129 190 130 242 153 270 311 378 236 159 491 248 767 269 44 3 81 6 82 7
4 3 137 -3 203 -8z m-65 -1251 c156 -40 266 -200 251 -365 -24 -276 -358 -414
-565 -233 -174 152 -164 406 21 546 71 54 196 76 293 52z m-305 -1190 c98 -14
351 -13 445 2 28 4 79 8 115 8 l64 0 38 -50 c21 -27 63 -86 92 -130 30 -44 66
-91 80 -104 14 -14 26 -30 26 -38 0 -7 4 -13 9 -13 16 0 73 -128 73 -164 0
-43 -22 -80 -60 -100 -55 -29 -363 -109 -497 -131 -110 -17 -289 -13 -405 10
-158 31 -421 108 -457 134 -72 52 -45 164 75 309 21 26 66 88 100 137 91 134
104 145 160 144 26 0 90 -6 142 -14z"/>
<path d="M2660 4714 c-124 -25 -234 -78 -356 -169 -227 -170 -310 -293 -369
-551 -15 -66 -33 -123 -40 -129 -34 -29 -102 -242 -116 -365 -7 -62 -19 -110
-34 -140 -12 -25 -26 -58 -29 -75 -4 -16 -9 -41 -12 -55 -11 -49 -10 -186 3
-250 21 -107 22 -111 35 -129 7 -9 -5 -3 -26 13 -22 17 -62 45 -90 64 -31 21
-55 45 -62 65 -6 18 -21 57 -32 87 -11 30 -23 93 -27 139 -17 210 -76 301
-182 279 -109 -23 -147 -129 -147 -410 l1 -98 -28 49 c-53 92 -160 113 -222
43 -33 -36 -44 -100 -42 -224 2 -64 5 -121 8 -125 3 -5 15 -62 27 -128 21
-120 47 -192 82 -227 10 -10 18 -24 18 -31 0 -45 201 -168 328 -202 45 -11 54
-11 90 5 l40 18 26 -39 c14 -21 37 -46 50 -55 59 -38 281 -81 314 -60 5 3 17
-3 26 -13 16 -17 14 -20 -38 -46 -29 -15 -70 -43 -90 -62 l-36 -36 27 -36 c15
-20 32 -39 37 -43 6 -4 8 -8 6 -10 -3 -2 -20 -14 -39 -27 -27 -19 -49 -24
-113 -27 -111 -4 -169 -26 -270 -101 -109 -82 -157 -152 -190 -284 -18 -68
-14 -200 7 -276 19 -67 46 -101 129 -163 l59 -44 28 34 c37 44 65 104 73 160
4 25 24 83 45 130 22 47 42 93 45 103 3 11 16 17 33 17 28 0 110 22 148 39 11
5 36 15 55 22 19 7 64 30 99 51 57 35 67 37 100 28 45 -11 102 -18 163 -19
l46 -1 -20 -57 c-13 -39 -19 -74 -16 -108 4 -48 3 -51 -38 -85 -77 -65 -120
-159 -130 -285 -10 -142 -10 -198 4 -279 39 -233 221 -383 399 -330 82 25 131
70 162 149 24 62 27 273 4 379 l-14 68 32 67 c21 42 36 94 43 143 l10 78 92
-1 c120 -1 172 22 225 99 l16 23 36 -21 c34 -20 89 -32 212 -45 33 -3 74 -8
90 -11 57 -9 262 -11 316 -3 63 9 145 19 212 24 54 4 111 21 143 42 19 12 23
11 39 -14 22 -34 38 -47 87 -73 30 -16 57 -20 136 -20 l99 0 -2 -36 c-4 -47
18 -125 53 -197 28 -56 29 -59 14 -110 -9 -34 -15 -104 -15 -207 -1 -148 0
-157 25 -205 32 -62 60 -88 123 -116 166 -75 351 37 416 251 24 79 29 197 17
358 -8 105 -46 191 -115 258 -45 45 -48 51 -49 103 -1 31 -9 78 -19 104 -9 27
-15 50 -13 52 2 1 40 5 85 9 45 3 94 11 110 17 24 9 41 4 138 -44 127 -64 220
-97 270 -97 25 0 35 -4 35 -16 0 -8 18 -52 39 -97 22 -45 47 -113 56 -152 15
-67 74 -175 94 -175 6 0 43 27 84 59 102 81 120 126 121 296 1 115 -1 123 -32
197 -41 94 -80 150 -129 183 -21 14 -56 40 -79 58 -52 42 -129 66 -225 71 -56
3 -86 10 -116 27 l-40 23 33 44 c19 24 34 47 34 52 0 12 -64 62 -126 97 -56
31 -56 31 -33 44 13 7 29 12 34 10 32 -9 118 1 198 25 98 29 126 44 151 84 34
55 31 53 59 35 49 -32 112 -18 266 58 96 47 140 87 193 175 37 62 52 104 63
177 4 22 11 60 17 85 19 84 23 125 23 245 -1 136 -14 178 -66 209 -69 41 -145
15 -198 -69 l-26 -41 0 115 c0 233 -20 313 -88 362 -87 63 -177 25 -210 -91
-17 -58 -23 -99 -33 -194 -3 -32 -12 -77 -20 -100 -8 -23 -22 -60 -31 -84 -8
-23 -25 -47 -37 -54 -11 -6 -48 -31 -80 -55 -52 -40 -58 -42 -52 -22 3 13 13
62 22 109 26 136 5 329 -41 380 -9 10 -18 42 -21 76 -12 144 -68 343 -118 418
-12 17 -30 67 -40 111 -37 165 -94 304 -157 381 -65 79 -212 203 -313 264
-116 70 -278 121 -369 114 -43 -2 -94 -38 -120 -82 -16 -29 -16 -31 -1 -40 13
-7 18 -24 18 -63 1 -49 7 -63 58 -139 31 -47 87 -123 125 -170 152 -187 247
-333 274 -422 6 -18 12 -91 13 -163 2 -99 9 -161 31 -260 16 -71 29 -155 30
-185 0 -30 5 -63 9 -72 6 -14 3 -18 -14 -18 -31 0 -80 -32 -108 -69 -16 -22
-29 -30 -45 -27 -45 7 -69 -16 -161 -160 -11 -19 -43 -43 -75 -59 -31 -15 -73
-40 -93 -57 -24 -18 -42 -26 -50 -21 -7 4 -47 10 -89 13 -59 5 -83 12 -110 31
-39 29 -100 49 -173 56 -28 3 -88 13 -132 24 -98 23 -140 24 -219 4 -33 -9
-85 -18 -115 -21 -90 -9 -165 -31 -216 -64 -39 -25 -58 -30 -107 -30 -32 0
-67 -5 -78 -11 -16 -8 -27 -5 -54 16 -19 14 -63 41 -97 59 -55 29 -69 42 -108
106 -50 82 -82 110 -126 114 -21 1 -42 15 -68 44 -28 31 -49 44 -76 48 l-38 6
14 33 c9 22 11 42 5 63 -5 17 -7 32 -5 35 5 4 39 160 49 217 3 19 8 46 10 60
10 48 13 156 6 191 -18 84 69 248 252 474 48 61 118 154 154 207 61 89 66 102
66 148 -1 38 3 53 18 63 18 13 17 16 -17 55 -59 69 -98 79 -214 56z"/>
</g>
</svg>
