<?xml version="1.0" encoding="utf-8"?>
<!-- Generator: Adobe Illustrator 24.3.0, SVG Export Plug-In . SVG Version: 6.00 Build 0)  -->
<svg version="1.1" id="Layer_1" xmlns="http://www.w3.org/2000/svg" xmlns:xlink="http://www.w3.org/1999/xlink" x="0px" y="0px"
	 viewBox="0 0 907.81 370.85" style="enable-background:new 0 0 907.81 370.85;" xml:space="preserve">
<style type="text/css">
	.st0{clip-path:url(#crab_9_);}
	.st1{fill:#EAAA00;}
	.st2{fill:#FFFFFF;}
	.st3{fill:#9D2235;}
	.st4{fill:none;stroke:#FF0000;stroke-width:4;stroke-miterlimit:10;}
	.st5{clip-path:url(#crab_15_);}
	.st6{stroke:#FFFFFF;stroke-width:10;stroke-linecap:round;stroke-linejoin:round;stroke-miterlimit:10;}
	.st7{clip-path:url(#crab_16_);}
	.st8{fill:none;}
	.st9{clip-path:url(#crab_17_);}
</style>
<g id="crab1_2_">
	<g>
		<path d="M93.15,127.6c0.01-0.01,0.02-0.01,0.02-0.02C93.17,127.59,93.16,127.59,93.15,127.6C93.15,127.6,93.15,127.6,93.15,127.6z
			"/>
		<path d="M64.42,169.49c-0.53,0.6-0.77,0.87-0.96,1.47c-0.08,0.26-0.18,0.56-0.28,0.86c4.25,5.73,9.06,11.02,14.34,15.79
			c0.04-0.18,0.07-0.35,0.1-0.54c1.42-7.49,1.29-11.11,1.24-11.86l-0.67-2.87c-0.14-0.6-0.16-1.22-0.05-1.82
			c0.04-0.24,0.85-4.6,3.87-10.78c-1.19-0.95-2.35-2.04-3.45-3.27c-0.27-0.08-0.53-0.18-0.78-0.32c-1.49-0.78-2.38-2.3-2.42-3.92
			c-1.1-1.72-2.22-3.54-3.27-5.41c-0.08,0.15-0.16,0.3-0.24,0.45c-2.41,4.5-4.82,15.37-5.01,17.26
			C66.59,167.03,65.23,168.57,64.42,169.49z"/>
		<path d="M60.64,141.25c1.75-3.27,3.55-6.07,6.33-9.12c-0.09-4.57,2.14-8.23,8.52-9.72c1.23-0.28,2.33-0.51,3.36-0.69
			c0.28-0.21,0.54-0.41,0.82-0.63c13.28-9.98,26.11-10.27,27.53-10.27c0.21,0,0.36,0,0.45,0.01c3.76,0.16,7.18,2.01,9.4,5.08
			l2.32,3.2c0.75,1.03,1.03,2.32,0.78,3.57c-0.23,1.12-0.86,2.1-1.77,2.77c0.03,0.34,0.04,0.63,0.03,0.91
			c-0.06,4.12-1.65,6.4-6.37,13.17l-0.47,0.68c-1.88,2.69-3.77,5-5.76,7.42c2.37,2.77,0.59,8.93-5.15,14.17
			c-1.84,1.68-4.18,2.51-6.75,2.57c-1.58,3.07-2.46,5.56-2.89,7.02l0.32,1.38c0.03,0.11,0.05,0.23,0.07,0.35l0.02,0.14
			c0.18,1.22,0.62,5.98-1.32,16.19c-0.53,2.79-1.01,5.09-1.44,6.99c17.34,11.95,38.36,18.95,61.01,18.95
			c22.65,0,43.67-7,61.01-18.95c-0.43-1.9-0.91-4.21-1.44-6.99c-1.94-10.2-1.5-14.96-1.32-16.18l0.02-0.15
			c0.02-0.12,0.04-0.24,0.07-0.36l0.32-1.36c-0.44-1.46-1.31-3.96-2.89-7.02c-2.57-0.06-4.91-0.89-6.75-2.57
			c-5.74-5.24-7.52-11.4-5.15-14.17c-1.99-2.41-3.88-4.73-5.76-7.42l-0.47-0.68c-4.72-6.77-6.31-9.05-6.37-13.17
			c0-0.28,0-0.57,0.03-0.91c-0.91-0.67-1.55-1.65-1.77-2.77c-0.25-1.25,0.03-2.54,0.78-3.57l2.32-3.2c2.22-3.06,5.64-4.92,9.38-5.08
			c0.11,0,0.26-0.01,0.47-0.01h0c1.42,0,14.25,0.29,27.53,10.27c0.29,0.22,0.55,0.42,0.82,0.63c1.02,0.18,2.13,0.41,3.36,0.69
			c6.38,1.48,8.61,5.15,8.52,9.72c2.77,3.05,4.58,5.85,6.33,9.12c2.6,4.86,4.63,12.77,5.68,17.7c8.26-15.24,12.96-32.7,12.96-51.26
			C257.39,48.21,209.18,0,149.7,0C90.22,0,42.01,48.21,42.01,107.69c0,18.56,4.69,36.01,12.96,51.26
			C56.01,154.02,58.04,146.11,60.64,141.25z M182.92,169.56c11.25,12.86,10.98,19.29,2.13,21.81c-11.35,3.23-22.81,7.14-35.35,7.14
			c-12.54,0-24-3.91-35.35-7.14c-8.85-2.52-9.12-8.95,2.13-21.81c0,0,7.57-11.52,9.68-13.39c2.11-1.88,12.02,1.34,23.54,1.34
			c11.52,0,21.43-3.21,23.54-1.34C175.34,158.04,182.92,169.56,182.92,169.56z M129.85,107.69c0-10.96,8.89-19.85,19.85-19.85
			c10.96,0,19.85,8.89,19.85,19.85c0,10.96-8.89,19.85-19.85,19.85C138.74,127.54,129.85,118.65,129.85,107.69z M61.75,83.93
			c2.72-10.07,10.66-16.9,16.42-25.27c4.83-7.01,7.07-15.87,13.62-21.27c15.74-12.98,35.91-20.77,57.91-20.77
			c21.99,0,42.17,7.8,57.91,20.77c6.55,5.4,8.79,14.26,13.62,21.27c5.76,8.37,13.71,15.2,16.42,25.27
			c2.04,7.58-5.78,15.6-11.31,9.52c-4.15-4.56-13.15-3.78-25.75-7.46c-11.82-3.46-26.55-11.52-50.9-11.52s-39.08,8.06-50.9,11.52
			c-12.6,3.68-21.6,2.9-25.75,7.46C67.53,99.53,59.71,91.5,61.75,83.93z"/>
		<path d="M236.22,171.82c-0.1-0.3-0.2-0.6-0.28-0.86c-0.18-0.59-0.43-0.87-0.96-1.47c-0.81-0.92-2.18-2.46-2.43-4.98
			c-0.19-1.89-2.6-12.76-5.01-17.26c-0.08-0.15-0.16-0.3-0.24-0.45c-1.05,1.87-2.17,3.69-3.27,5.41c-0.04,1.62-0.93,3.14-2.42,3.92
			c-0.25,0.13-0.51,0.23-0.78,0.32c-1.1,1.23-2.26,2.32-3.45,3.27c3.02,6.18,3.83,10.54,3.87,10.78c0.11,0.6,0.09,1.23-0.05,1.82
			l-0.67,2.89c-0.04,0.62-0.2,4.23,1.24,11.84c0.04,0.19,0.07,0.36,0.1,0.54C227.16,182.83,231.97,177.55,236.22,171.82z"/>
		<path d="M206.22,127.58c0.01,0.01,0.02,0.01,0.02,0.02c0,0,0,0,0-0.01C206.24,127.59,206.23,127.59,206.22,127.58z"/>
	</g>
	<path id="crab_5_" d="M192.19,115.37L192.19,115.37c-0.13,0-0.22,0-0.27,0.01c-2.38,0.1-4.48,1.24-5.9,3.21l-2.32,3.2l2.34,1.42
		c-0.53,2.31-0.52,2.78-0.52,3.1c0.04,2.73,1.21,4.41,5.55,10.64l0.47,0.68c1.87,2.68,3.81,5.03,5.85,7.51c2.8,3.4,5.7,6.91,9.07,12
		c4.45,6.71,6.11,12.31,6.58,14.18l-0.55,2.35l-0.03,0.14l-0.02,0.14c-0.07,0.45-0.6,4.71,1.29,14.67
		c1.23,6.45,2.18,10.25,2.7,12.13c-0.3,0.84-0.55,1.93-0.51,3.21c0.03,1.12,0.54,2.39,1.51,3.81c-0.12-0.02-0.24-0.04-0.36-0.05
		c-0.28-0.04-0.56-0.05-0.83-0.05c-3.61,0-6.03,2.9-7.48,5.56c-0.4-0.08-0.88-0.15-1.41-0.15c-3.37,0-5.38,2.64-6.6,4.62
		c-0.47,0.77-0.9,1.56-1.31,2.34c-1.42,2.65-2.39,4.29-3.92,4.76c-3,0.92-6.91,3.75-9.53,5.84c-0.13-0.09-0.27-0.19-0.41-0.28
		c-1.4-0.9-2.73-1-3.6-1c-0.4,0-0.8,0.02-1.17,0.05c-0.4,0.03-0.81,0.05-1.26,0.05c-0.8,0-1.59-0.08-2.48-0.26
		c-1.36-0.27-1.54-0.43-2.02-0.86c-0.92-0.83-2-1.71-4.22-2.5c-3.25-1.15-5.61-1.34-7.89-1.52c-0.75-0.06-1.53-0.12-2.35-0.22
		c-1.15-0.14-2.48-0.51-3.88-0.9c-2.12-0.6-4.53-1.27-7-1.27c-2.47,0-4.88,0.68-7,1.27c-1.4,0.39-2.72,0.77-3.88,0.9
		c-0.82,0.1-1.59,0.16-2.35,0.22c-2.28,0.18-4.65,0.36-7.89,1.52c-2.22,0.79-3.3,1.67-4.22,2.5c-0.48,0.43-0.65,0.59-2.02,0.86
		c-0.89,0.18-1.68,0.26-2.48,0.26c-0.45,0-0.86-0.03-1.26-0.05c-0.38-0.02-0.77-0.05-1.17-0.05c-0.88,0-2.21,0.1-3.6,1
		c-0.14,0.09-0.28,0.18-0.41,0.28c-2.62-2.09-6.54-4.92-9.53-5.84c-1.53-0.47-2.5-2.11-3.92-4.76c-0.41-0.77-0.84-1.57-1.31-2.34
		c-1.22-1.98-3.23-4.62-6.6-4.62c-0.54,0-1.02,0.07-1.41,0.15c-1.46-2.66-3.87-5.56-7.48-5.56c-0.28,0-0.56,0.02-0.84,0.05
		c-0.12,0.02-0.24,0.03-0.36,0.05c0.97-1.42,1.48-2.7,1.51-3.81c0.04-1.28-0.21-2.37-0.51-3.21c0.52-1.88,1.48-5.68,2.7-12.13
		c1.89-9.96,1.36-14.21,1.29-14.67l-0.02-0.14l-0.03-0.14l-0.55-2.35c0.46-1.85,2.12-7.46,6.58-14.18c3.37-5.08,6.27-8.6,9.07-12
		c2.05-2.48,3.99-4.83,5.85-7.51l0.47-0.68c4.35-6.23,5.52-7.91,5.55-10.64c0-0.32,0.01-0.79-0.52-3.1l2.34-1.42l-2.32-3.2
		c-1.43-1.96-3.52-3.1-5.9-3.21c-0.06,0-0.15-0.01-0.27-0.01c-0.5,0-12.5,0.11-24.81,9.36c-11.11,8.35-14.46,12.51-17.76,18.67
		c-3.13,5.84-5.62,17.68-5.92,20.17c-0.1,0.13-0.29,0.35-0.44,0.51c-0.77,0.87-1.94,2.19-2.64,4.46c-0.22,0.7-0.54,1.62-0.91,2.68
		c-1.16,3.29-2.74,7.81-3.44,12.22c-0.55,3.49-0.76,6.84-0.84,8.95c-0.47,0.4-0.92,0.89-1.36,1.47c-2.34,3.05-3.12,13.2-2.63,17.32
		c0.51,4.31,1.65,9.32,1.7,9.53l0.12,0.52l0.26,0.46c0.09,0.16,0.47,0.81,1.09,1.65c-0.35-0.27-0.69-0.53-1.03-0.79
		c-2.88-2.21-5.36-4.12-7.17-5.13c-0.79-0.44-1.43-0.79-1.95-1.08c-0.08-0.93-0.32-2-0.85-3.13l-0.07-0.14
		c-0.81-1.72-2.69-5.74-2.8-8.43c-0.08-2.05-0.36-7.13-1.19-10.18c-0.06-0.21-0.12-0.46-0.18-0.72c-0.63-2.54-2.1-8.49-7.73-8.49
		c-5.51,0.01-8.92,5.83-9.17,9.85c-0.03,0.46-0.09,1.14-0.17,1.97c-0.34,3.72-0.96,10.64-0.45,16.37c0.07,0.83,0.13,1.56,0.17,2.2
		c-0.34-1.05-0.66-1.91-0.96-2.53c-2.65-5.44-6.19-6.25-8.06-6.25c-0.55,0-1.12,0.07-1.67,0.2c-2.04,0.49-5.55,2.18-6.1,7.94
		c-0.56,5.89-0.28,11.32,0.84,16.14c0.62,2.67,0.94,4.72,1.22,6.53c0.39,2.55,0.74,4.75,1.72,7.3c0.93,2.43,2.06,3.89,3.15,4.76
		c0.53,1.92,1.86,4.48,5.18,6.58c4.35,2.76,10.54,5.61,14.72,6.78c0.56,0.16,1.14,0.24,1.73,0.24c1.97,0,3.76-0.9,5.3-2.14
		c1.16,2.96,3.14,5.81,6.56,6.8c0.93,0.27,1.82,0.54,2.67,0.79c3.61,1.09,6.72,2.02,9.58,2.02c0.64,0,1.26-0.05,1.84-0.14
		c0.68-0.11,1.37-0.24,2.03-0.42c0.69,0.64,1.47,1.35,2.27,2.06c-0.85,0.27-1.68,0.57-2.54,0.92c-3.15,1.28-5.58,3.57-5.85,3.83
		l-2.17,2.09l1.65,2.52c0.26,0.4,1.12,1.64,2.44,2.84c-2.28,1.04-3.81,2.3-4.38,2.82c-0.24,0-0.5,0-0.77,0
		c-4.65,0-8.3,0.36-10.84,1.07c-4.55,1.27-7.73,4.31-9.01,5.7c-1.51,0.78-4.48,2.6-5.86,5.31c-0.15,0.3-0.38,0.71-0.65,1.18
		c-1.55,2.73-4.43,7.81-4.43,14.5c0,6.32,1.03,11.55,2.83,14.35c1.27,1.97,4.94,4.65,6.46,5.71l2.77,1.93l2.13-2.62
		c0.26-0.32,2.57-3.25,3.24-7.11l0.17-0.98c0.39-2.3,0.57-3.35,1.15-4.74c0.25-0.61,0.74-1.5,1.26-2.43
		c0.91-1.66,1.95-3.54,2.45-5.28c0.2-0.71,0.37-1.46,0.51-2.18c0.26,0.01,0.52,0.01,0.79,0.01c1.5,0,2.86-0.15,4.03-0.44
		c3.26-0.82,11.04-3.83,14.7-6.17c1.36-0.87,2.48-1.59,3.33-2.15c1.75,0.74,4.44,1.46,8.49,1.74c1.39,0.1,2.99,0.15,4.75,0.15
		c0.21,0,0.42,0,0.63,0c-0.04,0.09-0.07,0.17-0.11,0.26c-1.4,3.55-2.99,7.58-1.93,11c0.11,0.35,0.21,0.68,0.3,0.99
		c-2.3,1.58-5.53,4.25-7.16,7.65c-2.05,4.29-2.31,5.47-2.52,7.76l-0.03,0.37c-0.14,1.46,0.01,2.75,0.19,3.68
		c-0.52,1.49-1.22,4.08-1.06,6.72c0.03,0.48,0.05,0.98,0.07,1.51c0.12,2.87,0.28,6.8,1.95,11.77c2.38,7.1,9.01,14.3,17.07,14.3
		c9,0,15.04-6.21,15.04-15.45c0-2.12,0.02-3.51,0.04-4.63c0.05-3.02,0.04-3.72-0.48-7.9c-0.37-2.97-0.97-5.04-1.61-6.49
		c1.41-2.39,3.59-6.51,4.37-10.25c0.56-2.67,0.57-4.95,0.41-6.67c1.6,0.2,3.44,0.37,5.22,0.37l0.37,0l0.35,0
		c3.76,0,7.01,0,10.56-3.3c1.16-1.07,2.07-2.44,2.79-3.8c0.93,0.69,1.95,1.34,2.97,1.79c2.59,1.16,4.3,1.28,6.47,1.44
		c0.83,0.06,1.78,0.13,2.97,0.27c0.95,0.11,2.06,0.26,3.25,0.41c4.27,0.56,9.59,1.26,13.82,1.26c4.23,0,9.55-0.7,13.82-1.26
		c1.2-0.16,2.3-0.3,3.25-0.41c1.19-0.14,2.13-0.21,2.97-0.27c2.17-0.16,3.89-0.28,6.47-1.44c1.03-0.46,2.04-1.1,2.97-1.79
		c0.71,1.36,1.63,2.73,2.79,3.8c3.55,3.3,6.8,3.3,10.56,3.3l0.35,0l0.37,0c1.78,0,3.62-0.16,5.22-0.37c-0.16,1.72-0.14,4,0.41,6.67
		c0.78,3.73,2.96,7.86,4.37,10.25c-0.63,1.44-1.23,3.52-1.61,6.49c-0.53,4.18-0.53,4.88-0.48,7.9c0.02,1.12,0.04,2.51,0.04,4.63
		c0,9.24,6.04,15.45,15.04,15.45c8.05,0,14.68-7.19,17.07-14.3c1.67-4.97,1.83-8.9,1.95-11.77c0.02-0.53,0.04-1.03,0.07-1.51
		c0.16-2.63-0.55-5.23-1.06-6.72c0.18-0.93,0.33-2.23,0.19-3.68l-0.03-0.37c-0.21-2.28-0.46-3.46-2.52-7.76
		c-1.63-3.41-4.86-6.07-7.16-7.65c0.09-0.31,0.2-0.64,0.3-0.99c1.06-3.43-0.53-7.45-1.93-11c-0.03-0.09-0.07-0.17-0.11-0.26
		c0.21,0,0.42,0,0.63,0c1.76,0,3.36-0.05,4.75-0.15c4.06-0.28,6.74-1,8.49-1.74c0.85,0.55,1.97,1.28,3.33,2.15
		c3.65,2.34,11.43,5.35,14.7,6.17c1.17,0.29,2.53,0.44,4.03,0.44c0.27,0,0.54,0,0.79-0.01c0.14,0.72,0.31,1.47,0.51,2.18
		c0.5,1.75,1.53,3.63,2.45,5.28c0.49,0.9,1,1.82,1.26,2.43c0.58,1.39,0.75,2.44,1.15,4.74l0.17,0.98c0.67,3.86,2.98,6.79,3.24,7.11
		l2.13,2.62l2.77-1.93c1.52-1.06,5.19-3.74,6.46-5.71c1.8-2.8,2.83-8.03,2.83-14.35c0-6.69-2.88-11.77-4.43-14.5
		c-0.27-0.47-0.5-0.87-0.65-1.18c-1.38-2.71-4.35-4.53-5.86-5.31c-1.28-1.39-4.46-4.43-9.01-5.7c-2.54-0.71-6.19-1.07-10.84-1.07
		c-0.27,0-0.52,0-0.77,0c-0.58-0.52-2.1-1.79-4.38-2.82c1.32-1.2,2.18-2.45,2.44-2.84l1.65-2.52l-2.17-2.09
		c-0.27-0.26-2.7-2.55-5.85-3.83c-0.86-0.35-1.69-0.65-2.54-0.92c0.81-0.72,1.58-1.42,2.27-2.06c0.67,0.18,1.36,0.31,2.03,0.42
		c0.58,0.09,1.2,0.14,1.84,0.14c2.86,0,5.97-0.94,9.58-2.02c0.85-0.26,1.74-0.53,2.67-0.79c3.41-0.98,5.4-3.83,6.56-6.8
		c1.54,1.24,3.33,2.14,5.3,2.14c0.59,0,1.17-0.08,1.73-0.24c4.18-1.17,10.37-4.03,14.72-6.78c3.32-2.1,4.66-4.67,5.18-6.58
		c1.09-0.87,2.22-2.33,3.15-4.76c0.98-2.56,1.32-4.76,1.72-7.3c0.28-1.81,0.6-3.87,1.22-6.53c1.12-4.82,1.4-10.25,0.84-16.14
		c-0.55-5.76-4.06-7.45-6.1-7.94c-0.55-0.13-1.11-0.2-1.67-0.2c-1.88,0-5.42,0.81-8.06,6.25c-0.31,0.63-0.62,1.48-0.96,2.53
		c0.04-0.64,0.1-1.37,0.17-2.2c0.51-5.73-0.12-12.65-0.45-16.37c-0.08-0.84-0.14-1.51-0.17-1.97c-0.25-4.02-3.66-9.84-9.16-9.85
		c-5.65,0-7.12,5.95-7.74,8.49c-0.06,0.26-0.12,0.5-0.18,0.72c-0.83,3.05-1.11,8.14-1.19,10.18c-0.11,2.69-1.99,6.71-2.8,8.43
		l-0.07,0.14c-0.53,1.13-0.77,2.2-0.85,3.13c-0.52,0.29-1.16,0.64-1.95,1.08c-1.81,1.01-4.29,2.92-7.17,5.13
		c-0.34,0.26-0.68,0.52-1.03,0.79c0.62-0.84,1-1.49,1.09-1.65l0.26-0.46l0.12-0.52c0.05-0.21,1.19-5.21,1.7-9.53
		c0.49-4.12-0.29-14.27-2.63-17.32c-0.44-0.57-0.89-1.06-1.36-1.47c-0.08-2.12-0.28-5.46-0.84-8.95c-0.7-4.41-2.28-8.92-3.44-12.22
		c-0.37-1.06-0.69-1.97-0.91-2.68c-0.71-2.27-1.87-3.59-2.64-4.46c-0.15-0.17-0.34-0.38-0.44-0.51c-0.3-2.48-2.79-14.33-5.92-20.17
		c-3.3-6.16-6.65-10.32-17.76-18.67C204.68,115.47,192.69,115.37,192.19,115.37L192.19,115.37z M278.89,227.66
		c0.1-0.11,0.2-0.22,0.3-0.34c-0.24,0.92-0.45,1.65-0.57,1.99c-0.08,0.21-0.13,0.35-0.21,0.48
		C278.66,229.01,278.81,228.29,278.89,227.66L278.89,227.66z M20.99,229.79c-0.07-0.13-0.13-0.27-0.21-0.48
		c-0.12-0.34-0.33-1.07-0.57-1.99c0.1,0.12,0.2,0.23,0.3,0.34C20.59,228.29,20.74,229.01,20.99,229.79L20.99,229.79z M24.83,235.74
		c-0.05-0.16-0.11-0.33-0.17-0.5c0.34,0.31,0.7,0.62,1.08,0.93C25.4,236.01,25.1,235.87,24.83,235.74L24.83,235.74z M273.66,236.17
		c0.38-0.31,0.74-0.62,1.08-0.93c-0.06,0.17-0.12,0.34-0.17,0.5C274.3,235.87,274,236.01,273.66,236.17L273.66,236.17z"/>
	<g>
		<path class="st8" d="M203.98,298.8c-1.73-0.39-3.4-0.71-4.49-0.76c-0.44-0.02-0.97-0.03-1.55-0.04c-3.54-0.03-8.92,0.19-8.92,0.19
			l-2.78,2.85c0,0,1.28,1.65,1.91,1.61c0.59-0.03,8.21-3.03,11.29-3.65c0.24-0.05,0.46-0.09,0.64-0.1
			C201.09,298.81,202.5,298.71,203.98,298.8z"/>
		<path class="st8" d="M99.91,298.04c-1.09,0.05-2.76,0.37-4.49,0.76c1.47-0.09,2.89,0.01,3.89,0.1c2.48,0.23,11.29,3.71,11.93,3.75
			c0.64,0.04,1.91-1.61,1.91-1.61l-2.78-2.85C110.38,298.19,103.1,297.89,99.91,298.04z"/>
		<path d="M84.58,222.43l-31.03-20.68v20.62c0.63,0.69,1.39,1.37,2.24,1.83c2.37,1.28,3.18,2.25,3.18,2.25s-0.11,1.22,0.53,2.36
			c0,0,7.8,10.29,12.8,14.32h12.27V222.43z"/>
		<path d="M68.93,243.11c-0.26-0.66-1.45-3.25-4.55-5.06c-3.57-2.08-5.8-2.5-5.8-2.5s0.87-1.44-3.66-4.05
			c-0.43-0.25-0.89-0.54-1.36-0.85v12.45H68.93z"/>
		<path d="M115.61,243.11v-9.6c-1.41,0.97-1.97,2.02-1.97,2.02s-6.91-6.09-10.83-7.29s-5.33-5.52-7.26-8.67s-3.23-3.05-4.45-2.75
			s-2.24,1.47-2.24,1.47s-1.55-5.17-4.27-6.63v10.76L115.61,243.11z"/>
		<path d="M199.45,299c-3.08,0.62-10.7,3.61-11.29,3.65c-0.64,0.04-1.91-1.61-1.91-1.61l2.78-2.85c0,0,5.39-0.22,8.92-0.19
			l-20.28-13.52v24.83c1.71-1.37,3.03-2.83,3.03-2.83s1.16,4.99,3.75,7.39s4.58,2.33,8.82,2.33s9-1.05,9-1.05l0.3,2.14
			c0,0-1.13,3.26-0.11,8.1c1.01,4.84,5.06,10.96,5.06,10.96s-1.54,1.31-2.25,6.98c-0.71,5.67-0.41,4.5-0.41,12.08
			c0,4.13,1.46,7.27,3.84,9.27v-59.5L199.45,299z"/>
		<path d="M53.56,194.67c-0.34,0.12-0.87,0.47-1.57,1.39c-0.47,0.61-0.9,2.04-1.24,3.81l2.81,1.87V194.67z"/>
		<path d="M22.53,238.66c-0.63-0.32-0.98-0.51-0.98-0.51s0.24-1.03-1.11-3.23c-1.35-2.2-2.3-2.19-3.08-4.38
			c-0.79-2.19-3.18-13.11-4.52-15.86c-1.34-2.75-3.27-4.67-5.61-4.11c-2.34,0.56-3.12,2.58-3.33,4.75
			c-0.21,2.17-0.75,8.47,0.76,14.97c1.44,6.19,1.33,9.21,2.59,12.82h15.27V238.66z"/>
		<path d="M270.75,331.3c0.34,0.52,0.59,0.84,0.59,0.84s4.46-3.11,5.48-4.69c1.01-1.58,2.25-5.55,2.25-12.38
			c0-1.7-0.22-3.29-0.56-4.73l-7.75-5.17V331.3z"/>
		<path d="M208.69,285.44c1.4-0.39,2.83-0.73,4.28-0.99c6.92-1.25,19.04-1.23,25.01-1.13l-23.32-15.54
			c-0.11,0.58-0.09,1.15,0.13,1.72c0,0-2.85-0.6-2.31-3.17l-3.8-2.53V285.44z"/>
		<path d="M241.85,265.92c0,0,0.26,0.64,3.34,1.14c3.08,0.5,7.22-1.06,12.5-2.58c5.28-1.52,5.54-11.58,5.54-11.58
			s3.85,7.01,7.52,6.76v-16.55h-5.08c-0.24,0.07-0.48,0.15-0.73,0.21c-7.06,1.98-12.72,7.15-12.72,7.15s-1.52,0.27-4.73,1.55
			c-3.21,1.28-7.36,4.14-7.36,4.14s-0.02-0.07-0.4-0.12v11.85C240.97,266.76,241.85,265.92,241.85,265.92z"/>
		<path d="M83.35,174.46l-0.73-3.16c0,0,0.44-2.41,1.97-6.2v-18.41c-2.73,3.09-4.69,5.42-4.69,5.42s1.36-4.94,4.69-9.72v-14.76
			c-11.29,8.49-13.93,12.25-16.73,17.48c-2.8,5.23-5.31,16.81-5.52,18.95c-0.07,0.7-0.34,1.21-0.7,1.69l21.6,14.4
			C83.6,176.17,83.35,174.46,83.35,174.46z"/>
		<polygon points="208.69,243.11 177.67,243.11 208.69,263.8 		"/>
		<path d="M221.75,313.87c0.07-2.11-1-4.89-2-7.43c-1.2-3.04-2.81-3.86-5.06-4.31c-2.25-0.45-2.93,3.26-2.93,3.26
			s0.3-1.61-1.95-4.31c-0.32-0.38-0.7-0.7-1.11-0.97v5.06L221.75,313.87z"/>
		<path d="M270.75,297.68c-0.72-0.42-1.25-0.66-1.25-0.66s-3.04-3.83-7.73-5.14c-3.73-1.04-9.91-0.97-12.29-0.9l21.27,14.18V297.68z
			"/>
		<path d="M210.82,300.59c0,0,10.32,0.98,17.33,0.49s8.89-2.36,8.89-2.36s0.97,0.65,2.68,1.75v-13.88
			c-5.52-0.45-17.02-0.9-24.95-0.08c-2.1,0.27-4.14,0.64-6.08,1.04v12.44C209.96,300.33,210.82,300.59,210.82,300.59z"/>
		<path d="M241.51,283.4c2.51-0.49,4.65-3.75,4.65-3.75s-2.1-2.03-4.69-3.08c-0.58-0.24-1.16-0.45-1.75-0.65v7.43
			C240.85,283.38,241.51,283.4,241.51,283.4z"/>
		<path d="M248.82,290.12c0,0-1.85-1.81-4.91-2.84l4.78,3.19L248.82,290.12z"/>
		<polygon points="146.64,243.11 146.64,263.8 177.67,284.48 177.67,243.11 		"/>
		<path d="M21.15,195.31c-0.16,2.5-1.22,11.09-0.63,17.79c0.6,6.7-0.03,6.73,1.2,9.64c0.28,0.66,0.55,1.17,0.81,1.58v-32.79
			C21.72,192.76,21.22,194.18,21.15,195.31z"/>
		<path d="M239.72,249.95c0.65-0.2,1.33-0.41,2.07-0.67c6-2.1,9.33-4.83,10.7-6.17h-12.77V249.95z"/>
		<path class="st1" d="M115.61,243.11h31.03v-17.2c-2.49,0.54-5.01,1.49-7.38,1.77c-3.35,0.4-5.65,0.2-9.45,1.55
			c-3.8,1.35-2.45,2.65-6.75,3.5s-5.7-0.35-7.25,0.65c-0.07,0.04-0.12,0.09-0.18,0.13V243.11L115.61,243.11z"/>
		<path class="st1" d="M84.58,222.43v-10.76c-0.55-0.3-1.15-0.45-1.79-0.37c-3.82,0.5-3.21,2.24-3.21,2.24l-3.87-0.35l-0.16-3.76
			c0,0,4.24-3.87,4.29-5.6c0.05-1.72-0.76-2.8-0.76-2.8s1.18-3.48,3.02-13.12c0.61-3.22,0.95-5.77,1.14-7.76l-21.6-14.4
			c-0.74,0.98-1.87,1.83-2.51,3.86c-0.94,3.02-3.37,8.91-4.23,14.38c-0.87,5.47-0.84,10.64-0.84,10.64s-0.17-0.08-0.49,0.03v7.08
			L84.58,222.43z"/>
		<polygon class="st1" points="84.58,222.43 84.58,243.11 115.61,243.11 115.61,243.11 		"/>
		<path class="st1" d="M33.74,243.11c-5.03-1.49-9.35-3.52-11.21-4.45v4.45H33.74z"/>
		<path class="st1" d="M87.79,138.58c9.05-8.74,16.28-14.01,22.65-17.86c-1.09-1.51-2.51-1.68-3.12-1.71
			c-0.6-0.03-11.43,0.13-22.74,8.63c0,0,0,0-0.01,0.01v14.76C85.5,141.08,86.56,139.77,87.79,138.58z"/>
		<path class="st1" d="M177.67,243.11L177.67,243.11v41.37L197.94,298c0.57,0.01,1.1,0.02,1.55,0.04c1.09,0.05,2.76,0.37,4.49,0.76
			c-1.47-0.09-2.89,0.01-3.89,0.1c-0.18,0.02-0.4,0.05-0.64,0.1l9.25,6.16v-5.06c-0.11-0.07-0.22-0.14-0.33-0.21
			c0.11,0.03,0.23,0.06,0.33,0.09v-12.44c-9.9,2.09-17.28,5.46-17.28,5.46s7.91-4.96,17.28-7.57V263.8L177.67,243.11z"/>
		<path class="st1" d="M89.89,155.1c6-9.05,10.74-13.5,14.98-19.58c4.24-6.08,5.35-7.6,5.37-9.29c0.01-0.36-0.44-2.28-0.44-2.28
			s-8.41,5.82-14.71,11.67c-3.34,3.11-7.42,7.57-10.51,11.06v18.41C85.69,162.36,87.37,158.91,89.89,155.1z"/>
		<path class="st1" d="M278.5,310.33c-1.04-4.36-3.23-7.52-4.13-9.3c-0.75-1.47-2.45-2.66-3.63-3.35v7.48L278.5,310.33z"/>
		<path class="st1" d="M208.69,263.8l3.8,2.53c0.07-0.32,0.17-0.66,0.36-1.04c9.45-5.18,18.45-14.45,18.45-14.45s1.9,1.08,8.42-0.89
			v-6.84h-9.25c-0.04,0.1-0.06,0.16-0.06,0.16s-3.82,2.43-5.92,1.38c0.69-0.17,1.59-0.73,2.59-1.54h-18.39V263.8z"/>
		<path class="st1" d="M239.72,283.36v-7.43c-2.06-0.69-4.35-1.19-7.93-1.6c1.5-0.65,5.45-4.15,7.93-6.42v-11.85
			c-0.48-0.06-1.53-0.07-3.84,0.16c-1.43,0.14-4.53,1.56-8.2,2.7c-6.1,1.88-12.34,5.39-13.02,8.88l23.32,15.54
			C238.64,283.33,239.23,283.34,239.72,283.36z"/>
		<path class="st1" d="M270.75,259.66c0.19-0.01,0.37-0.03,0.56-0.08c3.82-1.07,9.65-3.75,13.76-6.35c4.1-2.6,3.82-5.95,3.82-5.95
			s1.59,0.23,3.07-3.63c0.07-0.18,0.13-0.36,0.2-0.54h-21.4V259.66z"/>
		<path class="st1" d="M242.18,302.05c3.23,2.06,10.62,4.95,13.62,5.7c3,0.75,7.02,0,7.02,0s0.3,2.89,0.94,5.14
			c0.64,2.25,2.74,5.33,3.56,7.32s1.01,3.45,1.54,6.49c0.34,1.96,1.27,3.65,1.89,4.6v-26.14l-21.27-14.18
			c-0.61,0.02-0.99,0.04-0.99,0.04l0.21-0.56l-4.78-3.19c-0.37-0.13-0.76-0.25-1.17-0.34c-0.4-0.1-1.48-0.22-3.03-0.35v13.88
			C240.42,300.92,241.24,301.45,242.18,302.05z"/>
		<path class="st1" d="M50.75,199.87c-0.66,3.41-0.99,8.13-0.66,10.87c0.49,4.17,1.64,9.14,1.64,9.14s0.71,1.24,1.84,2.47v-20.62
			L50.75,199.87z"/>
		<path class="st1" d="M229.88,355.4c1.8-5.37,1.65-9.3,1.84-12.34c0.19-3.04-1.24-6.27-1.24-6.27s0.56-1.61,0.38-3.56
			s-0.11-2.51-2.21-6.9c-2.1-4.39-8.14-7.58-8.14-7.58s0.41-1.54,1.09-3.71c0.11-0.35,0.15-0.75,0.16-1.16l-13.06-8.71v59.5
			c1.98,1.67,4.6,2.55,7.57,2.55C222.79,367.22,228.08,360.77,229.88,355.4z"/>
		<path class="st1" d="M146.64,263.8v41.37v9c1.07,0.07,2.1,0.11,3.06,0.11c5.16,0,12.4-1.15,16.65-1.65
			c4.25-0.5,5.53-0.14,8.38-1.41c1-0.45,2.02-1.16,2.94-1.89v-24.83L146.64,263.8z"/>
		<path class="st1" d="M53.56,230.66c-4.53-2.95-10.86-8.4-13.87-10.08c-3.32-1.85-3.96-2.18-3.96-2.18s0.59-1.66-0.36-3.67
			c-0.94-2.01-3.07-6.47-3.21-9.97s-0.5-7.3-1.06-9.37c-0.57-2.07-1.26-6.54-4.41-6.53c-1.73,0-3.17,1.19-4.16,2.67v32.79
			c0.87,1.39,1.54,1.51,1.54,1.51s-0.32,2.6,1.6,5.21c1.92,2.61,8.27,6.58,12.66,8.72s7.82,2.55,7.82,2.55s0.25,0.31,0.76,0.8h6.65
			V230.66z"/>
		<path class="st2" d="M252.49,243.11c0.51-0.49,0.76-0.8,0.76-0.8s3.43-0.41,7.82-2.55s10.74-6.11,12.66-8.72
			c1.92-2.61,1.6-5.21,1.6-5.21s1.11-0.19,2.34-3.09c1.23-2.9,0.6-2.94,1.2-9.64c0.6-6.7-0.47-15.29-0.63-17.79
			c-0.14-2.24-1.94-5.63-4.59-6.31h-1.81c-2.43,0.73-3.05,4.53-3.56,6.4c-0.57,2.07-0.92,5.86-1.06,9.37s-2.26,7.96-3.21,9.97
			c-0.94,2.01-0.36,3.67-0.36,3.67s-0.4,0.2-2.17,1.18c-1.1,1.35-2.64,2.33-4.4,2.72c-2.98,2.16-6.97,5.41-10.28,7.69
			c-1.11,2.23-3.22,3.86-5.76,4.3c-0.51,0.82-0.26,1.26-0.26,1.26s-0.4,0.08-1.1,0.31v7.24H252.49z"/>
		<path class="st2" d="M249.41,206.62c-0.16-3.88-0.85-8.42-1.75-10.16v10.16H249.41z"/>
		<path class="st2" d="M231.78,155.49h-7.69c-4.15,0-7.56-3.19-7.91-7.25c-3.17-3.63-8.01-9.02-11.87-12.61
			c-6.3-5.86-14.71-11.67-14.71-11.67s-0.44,1.92-0.44,2.28c0.02,1.68,1.13,3.21,5.37,9.29c4.24,6.08,8.97,10.52,14.98,19.58
			c6,9.05,7.28,16.2,7.28,16.2l-0.42,1.81h15.42V155.49z"/>
		<path class="st2" d="M224.08,139.6h3.98c-2.45-3.15-6.13-6.62-13.25-11.97c-11.3-8.49-22.13-8.65-22.74-8.63
			c-0.6,0.03-2.02,0.2-3.12,1.71c6.37,3.86,13.6,9.12,22.65,17.86c2.09,2.01,3.7,4.37,4.91,6.55
			C217.54,141.92,220.54,139.6,224.08,139.6z"/>
		<path class="st2" d="M292.14,243.11c1.26-3.61,1.15-6.63,2.59-12.82c1.51-6.5,0.97-12.79,0.76-14.97
			c-0.21-2.17-0.99-4.18-3.33-4.75c-2.34-0.56-4.27,1.35-5.61,4.11c-1.34,2.75-3.73,13.67-4.52,15.86
			c-0.79,2.19-1.74,2.18-3.08,4.38c-1.35,2.2-1.11,3.23-1.11,3.23s-5.46,2.97-12.19,4.96h5.08H292.14z"/>
		<path class="st3" d="M177.67,243.11L177.67,243.11h31.03h18.39c2.75-2.21,6.34-6.31,9.02-9.56c-2.57-1.32-4.33-3.98-4.33-7.07
			v-3.97h-7.69c-4.39,0-7.94-3.56-7.94-7.94c0-1.15,0.25-2.24,0.69-3.23c-0.08-0.01-0.14-0.03-0.23-0.04
			c-3.82-0.5-6.06,6.99-6.06,6.99s-1.02-1.18-2.24-1.47s-2.52-0.4-4.45,2.75c-1.93,3.15-3.34,7.46-7.26,8.67s-10.83,7.29-10.83,7.29
			s-0.6-1.15-2.15-2.15c-1.55-1-2.95,0.2-7.25-0.65c-4.3-0.85-2.95-2.15-6.75-3.5s-6.1-1.15-9.45-1.55c-3.35-0.4-7-2.15-10.45-2.15
			c-1.01,0-2.03,0.16-3.06,0.38v17.2H177.67z"/>
		<path class="st3" d="M231.78,206.62V189h-14.25c1.71,8.8,2.81,12.03,2.81,12.03s-0.81,1.07-0.76,2.8
			c0.02,0.81,0.97,2.09,1.96,3.22c0.8-0.27,1.66-0.43,2.55-0.43H231.78z"/>
		<path class="st3" d="M239.72,235.87c-0.99,0.33-2.61,0.96-4.7,2.18c-3.09,1.8-4.28,4.4-4.55,5.06h9.25V235.87z"/>
		<path class="st3" d="M261.51,219.58c-0.49,0.27-1.08,0.6-1.8,1c-0.7,0.39-1.6,1-2.6,1.73
			C258.87,221.91,260.41,220.93,261.51,219.58z"/>
		<path class="st3" d="M246.83,230c-0.84,0.58-1.64,1.1-2.36,1.51c-2.04,1.18-2.98,2.11-3.4,2.79
			C243.61,233.86,245.73,232.23,246.83,230z"/>
		<path class="st3" d="M239.72,229.01c0.11-0.14,0.17-0.22,0.17-0.22c0.64-1.13,0.53-2.36,0.53-2.36s0.82-0.96,3.18-2.25
			c2.37-1.28,4.08-4.31,4.08-4.31s1.14-4.97,1.64-9.14c0.13-1.12,0.15-2.57,0.09-4.12h-1.75v-10.16c-0.08-0.16-0.16-0.29-0.25-0.4
			c-1.38-1.8-2.07-1.43-2.07-1.43s0.03-5.16-0.84-10.64c-0.15-0.97-0.36-1.96-0.59-2.94h-4.2V229.01z"/>
		<path class="st3" d="M272.71,188.87c-0.31,0-0.59,0.05-0.86,0.13h1.81C273.36,188.92,273.04,188.87,272.71,188.87z"/>
		<path class="st2" d="M224.08,222.51h7.69v3.97c0,3.08,1.76,5.75,4.33,7.07c1.79-2.17,3.16-3.94,3.62-4.54v-47.95h-23.45
			c0.2,1.85,0.52,4.11,1.05,6.86c0.07,0.38,0.14,0.73,0.21,1.09h14.25v17.62h-7.69c-0.89,0-1.75,0.15-2.55,0.43
			c1.13,1.28,2.32,2.38,2.32,2.38l-0.16,3.76l-3.87,0.35c0,0,0.57-1.67-2.99-2.2c-0.44,0.99-0.69,2.08-0.69,3.23
			C216.14,218.95,219.7,222.51,224.08,222.51z"/>
		<path class="st2" d="M243.92,181.06c-1.09-4.54-2.87-8.96-3.64-11.45c-0.16-0.51-0.35-0.94-0.56-1.32v12.77H243.92z"/>
		<path class="st3" d="M239.72,168.29c-1.02-1.88-2.47-2.46-2.65-4.23c-0.22-2.14-2.72-13.72-5.52-18.95
			c-1.03-1.93-2.05-3.66-3.48-5.51h-3.98c-3.54,0-6.54,2.32-7.56,5.52c2.09,3.76,2.98,6.99,2.98,6.99s-1.33-1.59-3.33-3.87
			c0.35,4.06,3.76,7.25,7.91,7.25h7.69v17.62h-15.42l-0.31,1.35c0,0-0.29,1.96,0.22,6.6h23.45V168.29z"/>
		<path class="st2" d="M141.67,305.16c0,3.8-2.67,6.97-6.24,7.75c3.3,0.43,7.48,1.01,11.2,1.24v-9H141.67z"/>
		<path class="st2" d="M45.61,259.74c0-3.8,2.66-6.96,6.22-7.75c-3.15-1.25-4.65-1.52-4.65-1.52s-5.65-5.16-12.72-7.15
			c-0.25-0.07-0.49-0.14-0.73-0.21H22.53H7.26c0.06,0.18,0.13,0.36,0.2,0.54c1.48,3.86,3.07,3.63,3.07,3.63s-0.28,3.35,3.82,5.95
			c4.1,2.6,9.94,5.28,13.76,6.35c3.82,1.07,8.07-6.68,8.07-6.68s0.21,8.01,4.01,10.81h5.43V259.74z"/>
		<path class="st2" d="M46.91,243.11c1.02,0.99,3.14,2.77,6.65,4.48v-4.48H46.91z"/>
		<path class="st2" d="M77.66,313.11c-0.06,0.7-0.02,1.36,0.15,1.92c0.68,2.18,1.09,3.71,1.09,3.71s-6.04,3.19-8.14,7.58
			c-1.07,2.23-1.57,3.47-1.84,4.41h0.27c4.39,0,7.94,3.56,7.94,7.94c0,4.39-3.56,7.94-7.94,7.94h-1.34c0.15,2.43,0.49,5.3,1.66,8.78
			c1.8,5.37,7.09,11.82,13.62,11.82s11.41-4.24,11.41-11.82c0-7.58,0.3-6.42-0.41-12.08c-0.71-5.67-2.25-6.98-2.25-6.98
			s4.05-6.12,5.06-10.96c1.01-4.84-0.11-8.1-0.11-8.1l0.3-2.14c0,0,4.76,1.05,9,1.05c1.98,0,3.47,0.01,4.76-0.21v-2.87H77.66z"/>
		<path class="st2" d="M45.61,290.97c-2.65,0.07-5.75,0.29-7.98,0.91c-4.69,1.31-7.73,5.14-7.73,5.14s-0.16,0.07-0.41,0.2h16.12
			V290.97z"/>
		<path class="st3" d="M20.44,313.11c-0.06,0.64-0.11,1.29-0.11,1.96c0,6.83,1.24,10.81,2.25,12.38c1.01,1.58,5.48,4.69,5.48,4.69
			s1.95-2.4,2.48-5.44s0.71-4.5,1.54-6.49c0.8-1.93,2.79-4.87,3.49-7.1H20.44z"/>
		<path class="st3" d="M110.9,297.22v-7.69c0-4.39,3.56-7.94,7.94-7.94s7.94,3.56,7.94,7.94v7.69h6.95c4.39,0,7.94,3.56,7.94,7.94
			h4.96V263.8v-20.68h-31.03l0,0H84.58H72.31c1,0.81,1.9,1.37,2.59,1.54c-2.09,1.05-5.92-1.38-5.92-1.38s-0.02-0.06-0.06-0.16H53.56
			v4.48c1.19,0.58,2.53,1.15,4.05,1.68c8.22,2.88,10.5,1.56,10.5,1.56s9,9.28,18.45,14.45c1.65,3.45-1.95,4.2-1.95,4.2
			c1.54-4-5.78-8.4-12.89-10.59c-3.67-1.13-6.77-2.55-8.2-2.7c-1.39-0.14-2.32-0.19-2.95-0.19c0.59,1.11,0.93,2.38,0.93,3.73v3.97
			h7.69c4.39,0,7.94,3.56,7.94,7.94c0,4.39-3.56,7.94-7.94,7.94H61.5v3.72c6-0.1,18.04-0.11,24.93,1.13
			c11.11,2,21.56,8.55,21.56,8.55s-10.56-4.83-23.36-6.5c-7.14-0.74-17.17-0.44-23.13-0.05v10.77H110.9z"/>
		<path class="st3" d="M141.67,305.16H87.63c0,0.15,0.01,0.22,0.01,0.22s-0.02-0.09-0.05-0.22h-7.33c-0.21,0.38-0.42,0.79-0.61,1.28
			c-0.89,2.25-1.83,4.67-1.99,6.67h33.24v2.87c1.47-0.26,2.68-0.83,4.06-2.11c2.59-2.4,3.75-7.39,3.75-7.39s3.11,3.45,5.97,4.73
			c2.85,1.28,4.13,0.91,8.38,1.41c0.72,0.08,1.52,0.19,2.39,0.3C139,312.14,141.67,308.96,141.67,305.16z"/>
		<path class="st3" d="M77.14,338.67c0-4.39-3.56-7.94-7.94-7.94h-0.27c-0.26,0.91-0.29,1.54-0.38,2.5
			c-0.19,1.95,0.38,3.56,0.38,3.56s-1.43,3.23-1.24,6.27c0.07,1.07,0.09,2.25,0.17,3.56h1.34
			C73.58,346.62,77.14,343.06,77.14,338.67z"/>
		<path class="st2" d="M20.44,313.11h15.13c0.02-0.07,0.05-0.15,0.07-0.21c0.64-2.25,0.94-5.14,0.94-5.14s4.01,0.75,7.02,0
			c1.61-0.4,4.47-1.42,7.28-2.59H22.79C21.76,307.28,20.75,309.95,20.44,313.11z"/>
		<path class="st2" d="M141.67,305.16c0-4.39-3.56-7.94-7.94-7.94h-6.95v-7.69c0-4.39-3.56-7.94-7.94-7.94s-7.94,3.56-7.94,7.94
			v7.69H61.5v-10.77c-2.51,0.17-4.31,0.35-4.85,0.48c-1.19,0.29-2.22,0.72-3.1,1.16v15.89c1.43-0.67,2.72-1.33,3.66-1.93
			c3.23-2.06,5.14-3.34,5.14-3.34s1.88,1.88,8.89,2.36s17.33-0.49,17.33-0.49s1.02-0.3,2.46-0.69c-0.55,0.31-1.04,0.69-1.45,1.18
			c-1.77,2.12-1.96,3.56-1.96,4.09H141.67z M111.24,302.65c-0.64-0.04-9.45-3.53-11.93-3.75c-1-0.09-2.41-0.19-3.89-0.1
			c1.73-0.39,3.4-0.71,4.49-0.76c3.19-0.15,10.47,0.15,10.47,0.15l2.78,2.85C113.15,301.04,111.88,302.69,111.24,302.65z"/>
		<path class="st2" d="M69.2,279.6c4.39,0,7.94-3.56,7.94-7.94c0-4.39-3.56-7.94-7.94-7.94H61.5v-3.97c0-1.35-0.34-2.62-0.93-3.73
			c-1.23-0.01-1.29,0.15-1.29,0.15s-2.89-2-5.72-3.4v14.35c0.22-0.02,0.45-0.02,0.65-0.05c3.08-0.5,3.34-1.14,3.34-1.14
			s7.81,7.43,10.06,8.41c-4.61,0.53-7.09,1.2-9.68,2.25c-2,0.81-3.7,2.2-4.37,2.79v0.73c0.68,0.91,2.39,2.93,4.33,3.31
			c0,0,1.4-0.05,3.61-0.08v-3.72H69.2z"/>
		<path class="st2" d="M87.59,305.16c-0.19-0.79-0.96-3.42-2.88-3.04c-1.89,0.38-3.33,1.04-4.45,3.04H87.59z"/>
		<path class="st3" d="M50.58,290.12l0.34,0.9c0,0-2.37-0.12-5.3-0.05v6.25H29.5c-0.99,0.5-3.51,1.93-4.47,3.82
			c-0.49,0.97-1.37,2.36-2.23,4.13h28.08c0.92-0.38,1.82-0.78,2.68-1.18v-15.89C51.68,289.06,50.58,290.12,50.58,290.12z"/>
		<path class="st3" d="M53.24,279.65c0,0,0.12,0.18,0.32,0.44v-0.73C53.36,279.54,53.24,279.65,53.24,279.65z"/>
		<path class="st3" d="M51.92,252.02c-0.03-0.01-0.05-0.02-0.08-0.03c-3.56,0.79-6.22,3.96-6.22,7.75v3.97h-5.43
			c0.46,0.34,0.96,0.6,1.53,0.77c4.92,1.42,8.84,2.85,11.85,2.63v-14.35C53,252.49,52.45,252.23,51.92,252.02z"/>
	</g>
</g>
<g>
	<path d="M320.17,74.82V56.8c0-2.83,1.41-4.24,4.24-4.24h72.08v18.02c0,1.7-0.32,2.83-0.95,3.39c-0.64,0.57-1.73,0.85-3.29,0.85
		H320.17z M346.04,200.96V54.68c0.71,0,2.12,0,4.24,0h15.26c2.12,0,3.53,0,4.24,0v142.04c0,1.41-0.35,2.41-1.06,2.97
		c-0.71,0.57-2.72,0.92-6.04,1.06C359.36,200.89,353.81,200.96,346.04,200.96z"/>
	<path d="M401.37,201.38c-1.56,0-3.75-0.07-6.57-0.21c-2.83-0.14-5.65-0.35-8.48-0.64l35.4-143.95c0.56-2.97,3.74-4.45,9.54-4.45
		c1.98,0,3.99,0.07,6.04,0.21c2.05,0.14,3.78,0.35,5.19,0.64l35.4,144.16c0.28,1.42-0.21,2.47-1.48,3.18
		c-1.27,0.71-4.31,1.06-9.12,1.06c-1.56,0-3.46-0.04-5.72-0.11c-2.26-0.07-4.95-0.18-8.06-0.32l-15.48-74.84
		c-0.71-3.82-1.42-7.95-2.12-12.4c-0.71-4.45-1.34-9.08-1.91-13.89c-0.57-4.8-1.06-9.4-1.48-13.78c-0.42,4.38-0.95,8.98-1.59,13.78
		c-0.64,4.81-1.27,9.43-1.91,13.89c-0.64,4.45-1.38,8.59-2.23,12.4l-14.63,70.81c-0.29,1.41-0.95,2.51-2.01,3.29
		C409.11,200.99,406.17,201.38,401.37,201.38z M410.48,167.25v-21.41h47.91v21.41H410.48z"/>
	<path d="M484.9,200.96V56.8c0-2.83,1.41-4.24,4.24-4.24l19.5,4.24l-3.6,35.83c0.42,2.97,0.78,6.01,1.06,9.12
		c0.28,3.11,0.56,6.25,0.85,9.43c0.28,3.18,0.53,6.29,0.74,9.33c0.21,3.04,0.39,6.04,0.53,9.01c0.14,2.97,0.25,5.83,0.32,8.59
		c0.07,2.76,0.11,5.34,0.11,7.74v50.88c0,1.41-0.35,2.41-1.06,2.97c-0.71,0.57-2.69,0.92-5.94,1.06
		C498.39,200.89,492.81,200.96,484.9,200.96z M540.65,200.96l-22.47-56.82c-1.27-3.39-2.58-7.28-3.92-11.66
		c-1.34-4.38-2.62-8.97-3.82-13.78c-1.2-4.8-2.3-9.47-3.29-13.99c-0.99-4.52-1.88-8.62-2.65-12.3c-0.78-3.67-1.59-7.7-2.44-12.08
		l-13.99-13.99l1.06-13.78H508l22.05,55.76c1.41,3.68,2.83,7.81,4.24,12.4c1.41,4.59,2.72,9.26,3.92,13.99
		c1.2,4.74,2.3,9.29,3.29,13.67c0.99,4.38,1.83,8.34,2.54,11.87c0.71,3.53,1.48,7.35,2.33,11.45l14.42,15.48l-1.7,13.78H540.65z
		 M559.1,200.96l-19.5-4.24l3.18-40.7c-0.42-3.25-0.78-6.39-1.06-9.43c-0.28-3.04-0.53-5.97-0.74-8.8
		c-0.21-2.83-0.42-5.58-0.64-8.27c-0.21-2.68-0.35-5.33-0.42-7.95c-0.07-2.61-0.14-5.19-0.21-7.74c-0.07-2.54-0.11-5.09-0.11-7.63
		V56.8c0-1.41,0.35-2.4,1.06-2.97c0.71-0.56,2.72-0.92,6.04-1.06c3.32-0.14,8.87-0.21,16.64-0.21v144.16
		C563.34,199.55,561.92,200.96,559.1,200.96z"/>
	<path d="M573.94,200.96V56.8c0-2.83,1.41-4.24,4.24-4.24l19.5,4.24l-3.6,35.83c0.42,2.97,0.78,6.01,1.06,9.12
		c0.28,3.11,0.56,6.25,0.85,9.43c0.28,3.18,0.53,6.29,0.74,9.33c0.21,3.04,0.39,6.04,0.53,9.01c0.14,2.97,0.25,5.83,0.32,8.59
		c0.07,2.76,0.11,5.34,0.11,7.74v50.88c0,1.41-0.35,2.41-1.06,2.97c-0.71,0.57-2.69,0.92-5.94,1.06
		C587.43,200.89,581.85,200.96,573.94,200.96z M629.69,200.96l-22.47-56.82c-1.27-3.39-2.58-7.28-3.92-11.66
		c-1.34-4.38-2.62-8.97-3.82-13.78c-1.2-4.8-2.3-9.47-3.29-13.99c-0.99-4.52-1.88-8.62-2.65-12.3c-0.78-3.67-1.59-7.7-2.44-12.08
		l-13.99-13.99l1.06-13.78h18.87l22.05,55.76c1.41,3.68,2.83,7.81,4.24,12.4c1.41,4.59,2.72,9.26,3.92,13.99
		c1.2,4.74,2.3,9.29,3.29,13.67c0.99,4.38,1.83,8.34,2.54,11.87c0.71,3.53,1.48,7.35,2.33,11.45l14.42,15.48l-1.7,13.78H629.69z
		 M648.14,200.96l-19.5-4.24l3.18-40.7c-0.42-3.25-0.78-6.39-1.06-9.43c-0.28-3.04-0.53-5.97-0.74-8.8
		c-0.21-2.83-0.42-5.58-0.64-8.27c-0.21-2.68-0.35-5.33-0.42-7.95c-0.07-2.61-0.14-5.19-0.21-7.74c-0.07-2.54-0.11-5.09-0.11-7.63
		V56.8c0-1.41,0.35-2.4,1.06-2.97c0.71-0.56,2.72-0.92,6.04-1.06c3.32-0.14,8.87-0.21,16.64-0.21v144.16
		C652.38,199.55,650.96,200.96,648.14,200.96z"/>
	<path d="M662.98,200.96V56.8c0.85-2.83,2.26-4.24,4.24-4.24h50.88c0,6.36-0.07,11.02-0.21,13.99c-0.14,2.97-0.5,4.91-1.06,5.83
		c-0.57,0.92-1.56,1.38-2.97,1.38h-27.14v106h29.89c0,6.64-0.07,11.45-0.21,14.42c-0.14,2.97-0.5,4.84-1.06,5.62
		c-0.57,0.78-1.56,1.17-2.97,1.17H662.98z M664.67,131.42V109.8h47.7c0,8.9-0.18,14.73-0.53,17.49c-0.35,2.76-1.52,4.13-3.5,4.13
		H664.67z"/>
	<path d="M726.57,200.96V56.8c0.71-2.83,2.12-4.24,4.24-4.24h15.26c2.12,0,3.53,1.42,4.24,4.24v139.92c0,1.41-0.35,2.41-1.06,2.97
		c-0.71,0.57-2.72,0.92-6.04,1.06C739.89,200.89,734.34,200.96,726.57,200.96z M733.57,143.72c-2.41,0-3.82-0.42-4.24-1.27
		c-0.42-0.85-0.64-2.4-0.64-4.66V56.8c0.28-2.83,1.55-4.24,3.82-4.24h18.23c8.9,0,16.43,1.24,22.58,3.71
		c6.15,2.47,10.81,6.86,13.99,13.14c3.18,6.29,4.77,15.23,4.77,26.82c0,9.61-1.17,17.49-3.5,23.64c-2.33,6.15-5.44,10.95-9.33,14.42
		c-3.89,3.46-8.2,5.9-12.93,7.31c-4.74,1.41-9.58,2.12-14.52,2.12H733.57z M750.32,121.88h4.24c2.26,0,4.17-0.71,5.72-2.12
		c1.55-1.41,2.79-4.06,3.71-7.95c0.92-3.89,1.38-9.5,1.38-16.85c0-5.09-0.32-9.25-0.95-12.51c-0.64-3.25-1.63-5.62-2.97-7.1
		c-1.35-1.48-3.15-2.23-5.41-2.23h-5.72V121.88z M783.18,201.59c-1.84,0-3.96-0.07-6.36-0.21c-2.4-0.14-4.95-0.29-7.63-0.42
		c-0.28-12.44-1.34-22.72-3.18-30.85c-1.84-8.12-3.92-14.49-6.25-19.08c-2.33-4.59-5.27-8.8-8.8-12.61
		c-0.85-1.98-0.35-3.46,1.48-4.45l13.36-7.63c2.26,0,3.74,0.78,4.45,2.33c4.8,4.66,8.8,9.65,11.98,14.95
		c3.18,5.3,6.08,12.26,8.69,20.88c2.61,8.62,4.13,19.22,4.56,31.8c0,1.98-0.6,3.36-1.8,4.13
		C792.47,201.2,788.97,201.59,783.18,201.59z"/>
	<path d="M812.85,79.9c-2.12,0-3.96-0.39-5.51-1.17c-1.56-0.78-2.69-2.44-3.39-4.98c1.7-2.83,2.86-5.05,3.5-6.68
		c0.64-1.62,1.09-3.11,1.38-4.45c0.28-1.34,0.56-2.93,0.85-4.77c-2.26-1.41-3.82-3.18-4.66-5.3s-1.27-4.59-1.27-7.42
		c0-3.82,1.27-7.07,3.82-9.75c2.54-2.68,5.79-4.03,9.75-4.03c4.95,0,8.69,1.35,11.24,4.03c2.54,2.69,3.82,6.5,3.82,11.45
		c0,4.38-0.78,8.59-2.33,12.61c-1.56,4.03-3.46,7.56-5.72,10.6c-2.26,3.04-4.45,5.44-6.57,7.21
		C815.61,79.02,813.98,79.9,812.85,79.9z"/>
	<path d="M869.67,203.08c-9.47,0-16.47-1.45-20.99-4.35c-4.52-2.89-6.78-6.18-6.78-9.86c0-2.4,0.42-5.19,1.27-8.37
		c0.85-3.18,2.19-6.11,4.03-8.8c2.26,1.98,5.16,3.64,8.69,4.98c3.53,1.34,7.21,2.01,11.02,2.01c5.79,0,9.82-1.48,12.08-4.45
		c2.26-2.97,3.39-6.92,3.39-11.87c0-3.67-0.67-7.14-2.01-10.39c-1.34-3.25-3.85-7.28-7.53-12.08l-19.29-25.86
		c-4.81-6.5-7.99-12.15-9.54-16.96c-1.56-4.8-2.33-9.54-2.33-14.2c0-9.61,3.18-17.42,9.54-23.43c6.36-6.01,15.76-9.01,28.2-9.01
		c10.74,0,18.23,1.06,22.47,3.18c4.24,2.12,6.36,5.02,6.36,8.69c0,1.98-0.42,4.13-1.27,6.47c-0.85,2.33-2.26,4.63-4.24,6.89
		c-1.13-0.85-3.46-1.77-7-2.76c-3.54-0.99-7.35-1.48-11.45-1.48c-5.23,0-9.33,0.88-12.3,2.65c-2.97,1.77-4.45,4.49-4.45,8.16
		c0,3.25,0.6,6.25,1.8,9.01c1.2,2.76,3.14,6.04,5.83,9.86l20.35,26.08c5.09,6.5,8.48,12.37,10.18,17.6
		c1.7,5.23,2.54,10.89,2.54,16.96c0,7.07-1.1,13.75-3.29,20.03c-2.19,6.29-6.04,11.42-11.55,15.37S879.98,203.08,869.67,203.08z"/>
	<path d="M323.51,320.89v-84.32c0-0.74,0.23-1.32,0.68-1.73c0.45-0.41,1.34-0.62,2.66-0.62h12.01c4.04,0,7.59,0.62,10.65,1.86
		c3.05,1.24,5.57,3.32,7.55,6.25c1.98,2.93,3.49,6.91,4.52,11.95c1.03,5.04,1.55,11.31,1.55,18.82c0,9.08-0.54,16.7-1.61,22.84
		c-1.07,6.15-2.66,11.04-4.77,14.67c-2.11,3.63-4.64,6.25-7.61,7.86c-2.97,1.61-6.36,2.41-10.15,2.41H323.51z M333.54,311.36h5.57
		c1.65,0,3.22-0.45,4.7-1.36c1.49-0.91,2.83-2.7,4.02-5.39c1.2-2.68,2.15-6.62,2.85-11.82c0.7-5.2,1.05-12.09,1.05-20.68
		c0-5.69-0.27-10.4-0.8-14.11c-0.54-3.71-1.32-6.64-2.35-8.79c-1.03-2.15-2.33-3.63-3.9-4.46c-1.57-0.82-3.39-1.24-5.45-1.24h-5.7
		V311.36z"/>
	<path d="M371.3,320.89V236.2c0.41-1.32,1.11-1.98,2.11-1.98h5.94c0.99,0,1.65,0.66,1.98,1.98v82.71c0,0.66-0.15,1.11-0.43,1.36
		c-0.29,0.25-1.14,0.41-2.54,0.5C376.95,320.85,374.6,320.89,371.3,320.89z M374.77,285.73c-1.24,0-1.9-0.2-1.98-0.62
		c-0.08-0.41-0.12-1.11-0.12-2.11v-46.43c0-0.25,0.02-0.7,0.06-1.36c0.04-0.66,0.51-0.99,1.42-0.99h11.51
		c5.2,0,9.49,0.85,12.88,2.54c3.38,1.69,5.88,4.33,7.49,7.92c1.61,3.59,2.41,8.28,2.41,14.05c0,5.12-0.6,9.39-1.8,12.81
		c-1.2,3.43-2.85,6.17-4.95,8.23c-2.11,2.06-4.52,3.57-7.24,4.52c-2.72,0.95-5.61,1.42-8.67,1.42H374.77z M381.08,276.44h5.7
		c2.31,0,4.23-0.6,5.76-1.8c1.53-1.2,2.7-3.14,3.53-5.82c0.82-2.68,1.24-6.21,1.24-10.59c0-3.14-0.29-5.86-0.87-8.17
		c-0.58-2.31-1.59-4.07-3.03-5.26c-1.45-1.2-3.4-1.8-5.88-1.8h-6.44V276.44z M404.23,321.14c-0.74,0-1.63-0.02-2.66-0.06
		c-1.03-0.04-2.13-0.1-3.28-0.19c-0.41-7.1-1.26-13.06-2.54-17.89c-1.28-4.83-2.64-8.67-4.09-11.51c-1.45-2.85-3.24-5.51-5.39-7.99
		c-0.33-0.99-0.08-1.73,0.74-2.23l5.45-2.97c0.99,0,1.69,0.37,2.1,1.11c2.64,2.97,4.87,6.05,6.69,9.22
		c1.81,3.18,3.51,7.24,5.08,12.2c1.57,4.95,2.56,10.9,2.97,17.83c0,0.91-0.25,1.55-0.74,1.92
		C408.07,320.95,406.63,321.14,404.23,321.14z"/>
	<path d="M417.36,320.89V238.8c0-1.57,0.16-2.66,0.5-3.28c0.33-0.62,1.22-0.99,2.66-1.11c1.44-0.12,3.82-0.19,7.12-0.19v84.69
		c0,0.66-0.17,1.11-0.5,1.36c-0.33,0.25-1.18,0.41-2.54,0.5C423.24,320.85,420.82,320.89,417.36,320.89z"/>
	<path d="M456.98,321.76c-1.57,0-2.83-0.68-3.78-2.04c-0.95-1.36-1.67-3.07-2.17-5.14c-0.83-3.38-1.82-7.61-2.97-12.69
		c-1.16-5.08-2.37-10.52-3.65-16.34c-1.28-5.82-2.56-11.58-3.84-17.27c-1.28-5.7-2.41-10.9-3.4-15.6c-0.99-4.7-2.1-9.86-3.34-15.48
		c-0.25-1.07-0.29-1.84-0.12-2.29c0.16-0.45,0.95-0.68,2.35-0.68h8.17l10.28,47.91c0.74,3.63,1.4,7.28,1.98,10.96
		c0.58,3.67,1.11,7.14,1.61,10.4c0.5,3.26,0.95,6.21,1.36,8.85c0.33-2.64,0.72-5.59,1.18-8.85c0.45-3.26,0.97-6.73,1.55-10.4
		c0.58-3.67,1.16-7.32,1.73-10.96l9.29-44.94c0.16-0.99,0.39-1.73,0.68-2.23c0.29-0.5,0.93-0.74,1.92-0.74h8.67l-19.07,87.04
		c-1.32,0.16-2.58,0.29-3.78,0.37C460.42,321.71,458.87,321.76,456.98,321.76z"/>
	<path d="M490.28,320.89V238.8c0-1.57,0.16-2.66,0.5-3.28c0.33-0.62,1.22-0.99,2.66-1.11c1.44-0.12,3.82-0.19,7.12-0.19v84.69
		c0,0.66-0.17,1.11-0.5,1.36c-0.33,0.25-1.18,0.41-2.54,0.5C496.16,320.85,493.75,320.89,490.28,320.89z"/>
	<path d="M511.2,320.89V236.2c0-1.32,0.7-1.98,2.11-1.98l7.92,1.98l-1.36,14.49c0.16,1.16,0.31,2.77,0.43,4.83
		c0.12,2.06,0.23,4.35,0.31,6.87c0.08,2.52,0.16,5.14,0.25,7.86c0.08,2.72,0.16,5.32,0.25,7.8c0.08,2.48,0.12,4.66,0.12,6.56
		c0,1.9,0,3.3,0,4.21v30.09c0,0.66-0.15,1.11-0.43,1.36c-0.29,0.25-1.11,0.41-2.48,0.5C516.96,320.85,514.59,320.89,511.2,320.89z
		 M545.99,320.89l-14.24-34.05c-0.5-1.32-1.18-3.2-2.04-5.63c-0.87-2.43-1.8-5.18-2.79-8.23c-0.99-3.05-2-6.13-3.03-9.22
		c-1.03-3.1-1.98-5.96-2.85-8.6c-0.87-2.64-1.8-5.57-2.79-8.79l-5.7-6.19l0.74-5.94h7.68l13.87,33.43c0.58,1.41,1.3,3.36,2.17,5.88
		c0.87,2.52,1.8,5.28,2.79,8.29c0.99,3.01,1.98,6.03,2.97,9.04c0.99,3.01,1.9,5.8,2.72,8.36c0.82,2.56,1.77,5.37,2.85,8.42l6.07,7.3
		l-0.99,5.94H545.99z M553.42,320.89l-7.92-1.98l1.11-16.59c-0.17-1.24-0.29-2.87-0.37-4.89c-0.08-2.02-0.17-4.25-0.25-6.69
		c-0.08-2.43-0.17-4.93-0.25-7.49c-0.08-2.56-0.15-5.01-0.19-7.37c-0.04-2.35-0.06-4.44-0.06-6.25c0-1.81,0-3.22,0-4.21V236.2
		c0-0.66,0.14-1.11,0.43-1.36c0.29-0.25,1.13-0.41,2.54-0.5c1.4-0.08,3.76-0.12,7.06-0.12v84.69
		C555.53,320.23,554.83,320.89,553.42,320.89z"/>
	<path d="M587.84,322.13c-4.13,0-7.68-0.62-10.65-1.86c-2.97-1.24-5.39-3.38-7.24-6.44c-1.86-3.05-3.22-7.37-4.09-12.94
		c-0.87-5.57-1.3-12.69-1.3-21.36c0-9.74,0.62-17.64,1.86-23.71c1.24-6.07,3.01-10.77,5.32-14.11c2.31-3.34,5.1-5.63,8.36-6.87
		c3.26-1.24,6.95-1.86,11.08-1.86c4.04,0,7.24,0.64,9.6,1.92c2.35,1.28,3.53,2.74,3.53,4.4c0,1.16-0.12,2.29-0.37,3.4
		c-0.25,1.11-0.54,2.17-0.87,3.16c-1.07-0.91-2.48-1.63-4.21-2.17c-1.73-0.54-3.63-0.8-5.7-0.8c-3.14,0-5.84,0.58-8.11,1.73
		c-2.27,1.16-4.13,3.09-5.57,5.82c-1.45,2.72-2.5,6.4-3.16,11.02c-0.66,4.62-0.99,10.4-0.99,17.33c0,7.35,0.27,13.25,0.81,17.71
		c0.54,4.46,1.36,7.82,2.48,10.09c1.11,2.27,2.48,3.78,4.09,4.52c1.61,0.74,3.4,1.11,5.39,1.11c1.48,0,2.72-0.16,3.71-0.5
		c0.99-0.33,1.8-0.74,2.41-1.24c0.62-0.5,1.01-0.91,1.18-1.24v-30.83h-9.16v-6.31c0-1.4,0.78-2.1,2.35-2.1h16.22v46.55
		c-0.99,0.83-2.25,1.67-3.78,2.54c-1.53,0.87-3.39,1.59-5.57,2.17C593.27,321.84,590.73,322.13,587.84,322.13z"/>
	<path d="M647.51,322.13c-5.7,0-9.84-0.81-12.44-2.41c-2.6-1.61-3.9-3.28-3.9-5.01c0-0.99,0.21-2.17,0.62-3.53
		c0.41-1.36,1.07-2.58,1.98-3.65c1.32,1.24,3.03,2.27,5.14,3.09c2.11,0.83,4.64,1.24,7.61,1.24c4.37,0,7.49-1.16,9.35-3.47
		c1.86-2.31,2.79-5.36,2.79-9.16c0-2.81-0.52-5.4-1.55-7.8c-1.03-2.39-2.91-5.16-5.63-8.3l-12.38-14.49c-2.81-3.47-4.81-6.58-6-9.35
		c-1.2-2.76-1.8-5.63-1.8-8.6c0-5.2,1.84-9.45,5.51-12.75c3.67-3.3,8.93-4.95,15.79-4.95c5.86,0,10.03,0.6,12.51,1.8
		c2.48,1.2,3.71,2.66,3.71,4.4c0,0.83-0.21,1.75-0.62,2.79c-0.41,1.03-1.03,2-1.86,2.91c-0.83-0.58-2.33-1.22-4.52-1.92
		c-2.19-0.7-4.73-1.05-7.61-1.05c-3.71,0-6.67,0.74-8.85,2.23c-2.19,1.49-3.28,3.59-3.28,6.31c0,2.23,0.51,4.27,1.55,6.13
		c1.03,1.86,2.46,3.9,4.27,6.13l13.37,15.23c3.22,3.8,5.4,7.26,6.56,10.4c1.16,3.14,1.73,6.65,1.73,10.52
		c0,4.13-0.68,7.97-2.04,11.51c-1.36,3.55-3.63,6.4-6.81,8.54C657.52,321.06,653.13,322.13,647.51,322.13z"/>
	<path d="M696.67,322.13c-2.39,0-4.62-0.29-6.69-0.87c-2.06-0.58-3.94-1.65-5.63-3.22c-1.69-1.57-3.16-3.86-4.39-6.87
		c-1.24-3.01-2.19-6.97-2.85-11.89c-0.66-4.91-0.99-10.96-0.99-18.14c0-8.5,0.47-15.62,1.42-21.36c0.95-5.74,2.25-10.36,3.9-13.87
		c1.65-3.51,3.53-6.21,5.63-8.11c2.1-1.9,4.31-3.18,6.62-3.84c2.31-0.66,4.58-0.99,6.81-0.99c3.05,0,5.43,0.35,7.12,1.05
		c1.69,0.7,2.87,1.57,3.53,2.6c0.66,1.03,0.99,2.09,0.99,3.16c0,1.16-0.17,2.27-0.5,3.34c-0.33,1.07-0.7,1.98-1.11,2.72
		c-0.41-0.33-1.01-0.72-1.8-1.18c-0.78-0.45-1.71-0.87-2.79-1.24c-1.07-0.37-2.23-0.56-3.47-0.56c-1.57,0-3.12,0.27-4.64,0.8
		c-1.53,0.54-2.97,1.57-4.33,3.1c-1.36,1.53-2.54,3.69-3.53,6.5c-0.99,2.81-1.8,6.44-2.41,10.9c-0.62,4.46-0.93,9.95-0.93,16.47
		c0,6.27,0.31,11.39,0.93,15.35c0.62,3.96,1.46,7.04,2.54,9.22c1.07,2.19,2.37,3.69,3.9,4.52c1.53,0.83,3.2,1.24,5.01,1.24
		c2.39,0,4.62-0.41,6.69-1.24c2.06-0.82,3.63-1.69,4.7-2.6c0.41,0.83,0.78,1.78,1.11,2.85c0.33,1.07,0.5,2.15,0.5,3.22
		c0,1.57-0.64,3.03-1.92,4.4c-1.28,1.36-3.08,2.46-5.39,3.28C702.4,321.71,699.72,322.13,696.67,322.13z"/>
	<path d="M717.84,278.92v-9.41h36.52v9.41H717.84z M720.06,320.89V236.2c0-0.66,0.12-1.11,0.37-1.36c0.25-0.25,1.07-0.41,2.48-0.5
		c1.4-0.08,3.8-0.12,7.18-0.12v84.69c0,0.66-0.12,1.11-0.37,1.36c-0.25,0.25-1.07,0.41-2.48,0.5
		C725.84,320.85,723.45,320.89,720.06,320.89z M749.78,320.89V236.2c0-0.66,0.14-1.11,0.43-1.36c0.29-0.25,1.11-0.41,2.48-0.5
		c1.36-0.08,3.73-0.12,7.12-0.12v84.69c0,0.66-0.12,1.11-0.37,1.36c-0.25,0.25-1.07,0.41-2.48,0.5
		C755.56,320.85,753.16,320.89,749.78,320.89z"/>
	<path d="M791.38,322.13c-4.05,0-7.49-0.68-10.34-2.04c-2.85-1.36-5.16-3.73-6.93-7.12c-1.78-3.38-3.08-7.99-3.9-13.81
		c-0.83-5.82-1.24-13.19-1.24-22.1c0-10.98,0.87-19.69,2.6-26.12c1.73-6.44,4.35-11.04,7.86-13.81c3.51-2.76,7.94-4.15,13.31-4.15
		c3.96,0,7.35,0.72,10.15,2.17c2.81,1.45,5.08,3.84,6.81,7.18c1.73,3.34,2.99,7.8,3.78,13.37c0.78,5.57,1.18,12.57,1.18,20.99
		c0,11.39-0.8,20.39-2.41,26.99c-1.61,6.61-4.13,11.33-7.55,14.18C801.26,320.7,796.83,322.13,791.38,322.13z M791.75,311.73
		c3.05,0,5.43-1.13,7.12-3.4c1.69-2.27,2.93-5.98,3.71-11.14c0.78-5.16,1.18-11.9,1.18-20.24c0-8.25-0.33-14.84-0.99-19.75
		c-0.66-4.91-1.8-8.44-3.4-10.59c-1.61-2.15-3.9-3.22-6.87-3.22c-2.89,0-5.24,1.16-7.06,3.47c-1.82,2.31-3.14,6.11-3.96,11.39
		c-0.83,5.28-1.24,12.38-1.24,21.3c0,7.68,0.35,13.87,1.05,18.57c0.7,4.71,1.9,8.15,3.59,10.34
		C786.57,310.64,788.86,311.73,791.75,311.73z"/>
	<path d="M844.49,322.13c-4.05,0-7.49-0.68-10.34-2.04c-2.85-1.36-5.16-3.73-6.93-7.12c-1.78-3.38-3.08-7.99-3.9-13.81
		c-0.83-5.82-1.24-13.19-1.24-22.1c0-10.98,0.87-19.69,2.6-26.12c1.73-6.44,4.35-11.04,7.86-13.81c3.51-2.76,7.94-4.15,13.31-4.15
		c3.96,0,7.35,0.72,10.15,2.17c2.81,1.45,5.08,3.84,6.81,7.18c1.73,3.34,2.99,7.8,3.78,13.37c0.78,5.57,1.18,12.57,1.18,20.99
		c0,11.39-0.8,20.39-2.41,26.99c-1.61,6.61-4.13,11.33-7.55,14.18C854.38,320.7,849.94,322.13,844.49,322.13z M844.86,311.73
		c3.05,0,5.43-1.13,7.12-3.4c1.69-2.27,2.93-5.98,3.71-11.14c0.78-5.16,1.18-11.9,1.18-20.24c0-8.25-0.33-14.84-0.99-19.75
		c-0.66-4.91-1.8-8.44-3.4-10.59c-1.61-2.15-3.9-3.22-6.87-3.22c-2.89,0-5.24,1.16-7.06,3.47c-1.82,2.31-3.14,6.11-3.96,11.39
		c-0.83,5.28-1.24,12.38-1.24,21.3c0,7.68,0.35,13.87,1.05,18.57c0.7,4.71,1.9,8.15,3.59,10.34
		C839.68,310.64,841.97,311.73,844.86,311.73z"/>
	<path d="M876.8,320.89v-83.82c0-0.91,0.16-1.57,0.5-1.98c0.33-0.41,1.2-0.66,2.6-0.74c1.4-0.08,3.75-0.12,7.06-0.12v77.26h21.3
		v7.43c0,0.83-0.19,1.36-0.56,1.61c-0.37,0.25-0.85,0.37-1.42,0.37H876.8z"/>
</g>
</svg>
