<?xml version="1.0" encoding="utf-8"?>
<!-- Generator: Adobe Illustrator 24.3.0, SVG Export Plug-In . SVG Version: 6.00 Build 0)  -->
<svg version="1.1" id="Layer_1" xmlns="http://www.w3.org/2000/svg" xmlns:xlink="http://www.w3.org/1999/xlink" x="0px" y="0px"
	 viewBox="0 0 1854.47 246.53" style="enable-background:new 0 0 1854.47 246.53;" xml:space="preserve">
<style type="text/css">
	.st0{clip-path:url(#crab_15_);}
	.st1{fill:#EAAA00;}
	.st2{fill:#FFFFFF;}
	.st3{fill:#9D2235;}
	.st4{fill:none;stroke:#FF0000;stroke-width:4;stroke-miterlimit:10;}
	.st5{clip-path:url(#crab_16_);}
	.st6{stroke:#FFFFFF;stroke-width:10;stroke-linecap:round;stroke-linejoin:round;stroke-miterlimit:10;}
	.st7{clip-path:url(#crab_17_);}
	.st8{fill:none;}
	.st9{clip-path:url(#crab_18_);}
</style>
<g id="crab1_2_">
	<g>
		<path d="M61.93,84.83c0.01,0,0.01-0.01,0.02-0.01C61.93,84.82,61.93,84.82,61.93,84.83C61.92,84.82,61.92,84.82,61.93,84.83z"/>
		<path d="M42.82,112.67c-0.35,0.4-0.51,0.58-0.64,0.98c-0.05,0.18-0.12,0.37-0.19,0.57c2.83,3.81,6.02,7.32,9.53,10.5
			c0.02-0.12,0.05-0.24,0.07-0.36c0.95-4.98,0.86-7.39,0.82-7.89l-0.44-1.91c-0.09-0.4-0.1-0.81-0.03-1.21
			c0.03-0.16,0.57-3.06,2.57-7.17c-0.79-0.63-1.56-1.36-2.29-2.17c-0.18-0.05-0.35-0.12-0.52-0.21c-0.99-0.52-1.58-1.53-1.61-2.61
			c-0.73-1.14-1.48-2.35-2.17-3.6c-0.05,0.1-0.11,0.2-0.16,0.3c-1.6,2.99-3.2,10.22-3.33,11.47
			C44.27,111.04,43.36,112.06,42.82,112.67z"/>
		<path d="M40.31,93.9c1.16-2.17,2.36-4.03,4.21-6.06c-0.06-3.04,1.42-5.47,5.67-6.46c0.81-0.19,1.55-0.34,2.23-0.46
			c0.18-0.14,0.36-0.27,0.55-0.42c8.83-6.63,17.36-6.83,18.3-6.83c0.14,0,0.24,0,0.3,0.01c2.5,0.11,4.77,1.34,6.25,3.38l1.54,2.13
			c0.5,0.68,0.68,1.54,0.52,2.37c-0.15,0.74-0.57,1.4-1.18,1.84c0.02,0.23,0.03,0.42,0.02,0.61c-0.04,2.74-1.1,4.26-4.23,8.76
			l-0.31,0.45c-1.25,1.79-2.51,3.33-3.83,4.93c1.58,1.84,0.39,5.94-3.42,9.42c-1.22,1.12-2.78,1.67-4.49,1.71
			c-1.05,2.04-1.63,3.7-1.92,4.67l0.21,0.92c0.02,0.08,0.03,0.15,0.04,0.23l0.01,0.1c0.12,0.81,0.41,3.98-0.88,10.76
			c-0.35,1.85-0.67,3.38-0.95,4.65c11.53,7.94,25.5,12.6,40.56,12.6c15.06,0,29.03-4.65,40.56-12.6c-0.28-1.27-0.6-2.8-0.95-4.65
			c-1.29-6.78-1-9.95-0.88-10.76l0.02-0.1c0.01-0.08,0.03-0.16,0.05-0.24l0.21-0.91c-0.29-0.97-0.87-2.63-1.92-4.67
			c-1.71-0.04-3.26-0.59-4.49-1.71c-3.81-3.48-5-7.58-3.42-9.42c-1.32-1.6-2.58-3.14-3.83-4.93l-0.31-0.45
			c-3.14-4.5-4.2-6.01-4.23-8.76c0-0.19,0-0.38,0.02-0.61c-0.61-0.44-1.03-1.1-1.18-1.84c-0.17-0.83,0.02-1.69,0.52-2.37l1.54-2.13
			c1.48-2.04,3.75-3.27,6.24-3.38c0.07,0,0.17-0.01,0.31-0.01h0c0.94,0,9.48,0.19,18.3,6.83c0.19,0.14,0.36,0.28,0.55,0.42
			c0.68,0.12,1.42,0.27,2.23,0.46c4.24,0.99,5.72,3.42,5.67,6.46c1.84,2.03,3.04,3.89,4.21,6.06c1.73,3.23,3.08,8.49,3.77,11.77
			c5.49-10.13,8.61-21.74,8.61-34.07C171.1,32.05,139.05,0,99.51,0C59.98,0,27.93,32.05,27.93,71.59c0,12.34,3.12,23.94,8.61,34.07
			C37.23,102.39,38.58,97.13,40.31,93.9z M121.6,112.72c7.48,8.55,7.3,12.82,1.42,14.5c-7.54,2.15-15.16,4.74-23.5,4.74
			c-8.34,0-15.96-2.6-23.5-4.74c-5.88-1.67-6.06-5.95,1.42-14.5c0,0,5.04-7.66,6.44-8.9c1.4-1.25,7.99,0.89,15.65,0.89
			c7.66,0,14.25-2.14,15.65-0.89C116.56,105.06,121.6,112.72,121.6,112.72z M86.32,71.59c0-7.29,5.91-13.2,13.2-13.2
			c7.29,0,13.2,5.91,13.2,13.2c0,7.29-5.91,13.2-13.2,13.2C92.23,84.78,86.32,78.88,86.32,71.59z M41.05,55.79
			c1.81-6.7,7.09-11.24,10.92-16.8c3.21-4.66,4.7-10.55,9.05-14.14c10.46-8.63,23.87-13.81,38.49-13.81
			c14.62,0,28.03,5.18,38.49,13.81c4.36,3.59,5.84,9.48,9.05,14.14c3.83,5.57,9.11,10.1,10.92,16.8c1.36,5.04-3.84,10.37-7.52,6.33
			c-2.76-3.03-8.74-2.51-17.11-4.96c-7.86-2.3-17.65-7.66-33.84-7.66s-25.98,5.36-33.84,7.66c-8.37,2.45-14.36,1.93-17.11,4.96
			C44.89,66.16,39.69,60.83,41.05,55.79z"/>
		<path d="M157.03,114.22c-0.07-0.2-0.13-0.4-0.19-0.57c-0.12-0.39-0.28-0.58-0.64-0.98c-0.54-0.61-1.45-1.64-1.62-3.31
			c-0.13-1.26-1.73-8.48-3.33-11.47c-0.05-0.1-0.11-0.2-0.16-0.3c-0.7,1.24-1.44,2.46-2.17,3.6c-0.03,1.08-0.62,2.09-1.61,2.61
			c-0.17,0.09-0.34,0.16-0.52,0.21c-0.73,0.82-1.5,1.54-2.29,2.17c2.01,4.11,2.55,7.01,2.57,7.17c0.07,0.4,0.06,0.81-0.03,1.21
			l-0.45,1.92c-0.03,0.41-0.14,2.82,0.83,7.87c0.02,0.12,0.05,0.24,0.07,0.36C151.01,121.54,154.2,118.03,157.03,114.22z"/>
		<path d="M137.09,84.81c0.01,0,0.01,0.01,0.02,0.01c0,0,0,0,0,0C137.1,84.82,137.09,84.82,137.09,84.81z"/>
	</g>
	<path id="crab_5_" d="M127.76,76.69L127.76,76.69c-0.08,0-0.14,0-0.18,0c-1.58,0.07-2.98,0.83-3.92,2.13l-1.54,2.13l1.56,0.94
		c-0.35,1.53-0.35,1.85-0.34,2.06c0.03,1.82,0.8,2.93,3.69,7.07l0.31,0.45c1.24,1.78,2.53,3.34,3.89,4.99
		c1.86,2.26,3.79,4.6,6.03,7.97c2.96,4.46,4.06,8.18,4.37,9.42l-0.36,1.56l-0.02,0.09l-0.01,0.1c-0.04,0.3-0.4,3.13,0.86,9.75
		c0.82,4.29,1.45,6.81,1.8,8.06c-0.2,0.56-0.37,1.28-0.34,2.13c0.02,0.74,0.36,1.59,1,2.54c-0.08-0.01-0.16-0.02-0.24-0.03
		c-0.18-0.02-0.37-0.04-0.55-0.04c-2.4,0-4.01,1.93-4.97,3.7c-0.27-0.05-0.58-0.1-0.94-0.1c-2.24,0-3.58,1.75-4.38,3.07
		c-0.31,0.51-0.6,1.04-0.87,1.55c-0.94,1.76-1.59,2.85-2.61,3.16c-1.99,0.61-4.6,2.5-6.34,3.88c-0.09-0.06-0.18-0.12-0.27-0.18
		c-0.93-0.6-1.81-0.67-2.4-0.67c-0.27,0-0.53,0.02-0.78,0.03c-0.26,0.02-0.54,0.03-0.84,0.03c-0.53,0-1.06-0.05-1.65-0.17
		c-0.91-0.18-1.03-0.29-1.34-0.57c-0.61-0.55-1.33-1.14-2.81-1.66c-2.16-0.77-3.73-0.89-5.25-1.01c-0.5-0.04-1.02-0.08-1.56-0.14
		c-0.77-0.09-1.65-0.34-2.58-0.6c-1.41-0.4-3.01-0.85-4.65-0.85c-1.64,0-3.24,0.45-4.65,0.85c-0.93,0.26-1.81,0.51-2.58,0.6
		c-0.54,0.06-1.06,0.11-1.56,0.14c-1.52,0.12-3.09,0.24-5.25,1.01c-1.48,0.52-2.2,1.11-2.81,1.66c-0.32,0.29-0.43,0.39-1.34,0.57
		c-0.59,0.12-1.11,0.17-1.65,0.17c-0.3,0-0.57-0.02-0.84-0.03c-0.25-0.02-0.51-0.03-0.78-0.03c-0.58,0-1.47,0.07-2.4,0.67
		c-0.09,0.06-0.18,0.12-0.27,0.18c-1.74-1.39-4.34-3.27-6.34-3.88c-1.02-0.31-1.66-1.4-2.61-3.16c-0.27-0.51-0.56-1.04-0.87-1.55
		c-0.81-1.32-2.14-3.07-4.38-3.07c-0.36,0-0.67,0.05-0.94,0.1c-0.97-1.77-2.57-3.7-4.97-3.7c-0.18,0-0.37,0.01-0.56,0.04
		c-0.08,0.01-0.16,0.02-0.24,0.03c0.65-0.94,0.98-1.79,1-2.54c0.02-0.85-0.14-1.58-0.34-2.13c0.35-1.25,0.98-3.77,1.8-8.06
		c1.26-6.62,0.9-9.45,0.86-9.75l-0.01-0.1l-0.02-0.09l-0.36-1.56c0.31-1.23,1.41-4.96,4.37-9.42c2.24-3.38,4.17-5.71,6.03-7.97
		c1.36-1.65,2.65-3.21,3.89-4.99l0.31-0.45c2.89-4.14,3.67-5.26,3.69-7.07c0-0.21,0.01-0.53-0.34-2.06l1.56-0.94l-1.54-2.13
		c-0.95-1.31-2.34-2.06-3.92-2.13c-0.04,0-0.1,0-0.18,0c-0.34,0-8.31,0.07-16.49,6.22c-7.39,5.55-9.61,8.31-11.81,12.41
		c-2.08,3.88-3.74,11.76-3.94,13.41c-0.06,0.09-0.19,0.23-0.29,0.34c-0.51,0.58-1.29,1.45-1.76,2.96c-0.15,0.47-0.36,1.08-0.61,1.78
		c-0.77,2.19-1.82,5.19-2.29,8.12c-0.37,2.32-0.51,4.54-0.56,5.95c-0.31,0.27-0.61,0.59-0.9,0.98c-1.56,2.03-2.07,8.78-1.75,11.52
		c0.34,2.87,1.1,6.19,1.13,6.33l0.08,0.34l0.17,0.31c0.06,0.11,0.31,0.54,0.73,1.1c-0.23-0.18-0.46-0.35-0.68-0.52
		c-1.91-1.47-3.56-2.74-4.77-3.41c-0.52-0.29-0.95-0.53-1.29-0.72c-0.05-0.62-0.21-1.33-0.56-2.08l-0.04-0.09
		c-0.54-1.14-1.79-3.81-1.86-5.6c-0.05-1.36-0.24-4.74-0.79-6.77c-0.04-0.14-0.08-0.3-0.12-0.48c-0.42-1.69-1.39-5.64-5.14-5.64
		c-3.67,0.01-5.93,3.88-6.1,6.55c-0.02,0.31-0.06,0.75-0.11,1.31c-0.22,2.47-0.64,7.07-0.3,10.88c0.05,0.55,0.09,1.04,0.11,1.46
		c-0.23-0.7-0.44-1.27-0.64-1.69c-1.76-3.62-4.11-4.16-5.36-4.16c-0.37,0-0.74,0.04-1.11,0.13c-1.36,0.33-3.69,1.45-4.05,5.28
		c-0.37,3.91-0.19,7.52,0.56,10.73c0.41,1.77,0.62,3.14,0.81,4.34c0.26,1.69,0.49,3.16,1.14,4.86c0.62,1.62,1.37,2.59,2.1,3.17
		c0.35,1.27,1.24,2.98,3.44,4.38c2.89,1.83,7.01,3.73,9.78,4.51c0.37,0.1,0.76,0.16,1.15,0.16c1.31,0,2.5-0.6,3.52-1.42
		c0.77,1.97,2.09,3.86,4.36,4.52c0.62,0.18,1.21,0.36,1.77,0.53c2.4,0.72,4.47,1.35,6.37,1.35c0.42,0,0.84-0.03,1.22-0.09
		c0.45-0.07,0.91-0.16,1.35-0.28c0.46,0.43,0.97,0.9,1.51,1.37c-0.56,0.18-1.12,0.38-1.69,0.61c-2.09,0.85-3.71,2.37-3.89,2.54
		l-1.44,1.39l1.1,1.67c0.17,0.27,0.75,1.09,1.62,1.89c-1.52,0.69-2.53,1.53-2.91,1.88c-0.16,0-0.33,0-0.51,0
		c-3.09,0-5.52,0.24-7.2,0.71c-3.02,0.85-5.14,2.86-5.99,3.79c-1,0.52-2.98,1.73-3.89,3.53c-0.1,0.2-0.26,0.47-0.43,0.78
		c-1.03,1.81-2.95,5.19-2.95,9.64c0,4.2,0.69,7.68,1.88,9.54c0.84,1.31,3.28,3.09,4.29,3.79l1.84,1.28l1.42-1.74
		c0.17-0.21,1.71-2.16,2.15-4.73l0.11-0.65c0.26-1.53,0.38-2.23,0.76-3.15c0.17-0.41,0.49-1,0.84-1.62c0.61-1.1,1.3-2.35,1.63-3.51
		c0.13-0.47,0.25-0.97,0.34-1.45c0.17,0.01,0.35,0.01,0.53,0.01c1,0,1.9-0.1,2.68-0.29c2.17-0.54,7.34-2.55,9.77-4.1
		c0.9-0.58,1.65-1.06,2.21-1.43c1.16,0.49,2.95,0.97,5.64,1.16c0.92,0.06,1.98,0.1,3.16,0.1c0.14,0,0.28,0,0.42,0
		c-0.02,0.06-0.05,0.11-0.07,0.17c-0.93,2.36-1.99,5.04-1.28,7.32c0.07,0.23,0.14,0.45,0.2,0.66c-1.53,1.05-3.68,2.82-4.76,5.09
		c-1.37,2.85-1.54,3.64-1.67,5.16l-0.02,0.25c-0.09,0.97,0.01,1.83,0.13,2.45c-0.34,0.99-0.81,2.72-0.71,4.47
		c0.02,0.32,0.03,0.65,0.05,1c0.08,1.91,0.19,4.52,1.3,7.82c1.59,4.72,5.99,9.5,11.34,9.5c5.98,0,10-4.13,10-10.27
		c0-1.41,0.02-2.34,0.03-3.08c0.03-2.01,0.03-2.47-0.32-5.25c-0.25-1.97-0.65-3.35-1.07-4.31c0.94-1.59,2.39-4.33,2.91-6.81
		c0.37-1.77,0.38-3.29,0.27-4.43c1.06,0.14,2.29,0.24,3.47,0.24l0.25,0l0.23,0c2.5,0,4.66,0,7.02-2.19
		c0.77-0.71,1.38-1.63,1.85-2.53c0.62,0.46,1.3,0.89,1.98,1.19c1.72,0.77,2.86,0.85,4.3,0.96c0.56,0.04,1.18,0.09,1.97,0.18
		c0.63,0.07,1.37,0.17,2.16,0.28c2.84,0.37,6.38,0.84,9.19,0.84c2.81,0,6.35-0.46,9.19-0.84c0.8-0.1,1.53-0.2,2.16-0.28
		c0.79-0.09,1.42-0.14,1.97-0.18c1.44-0.1,2.58-0.19,4.3-0.96c0.68-0.3,1.36-0.73,1.98-1.19c0.47,0.9,1.08,1.82,1.85,2.53
		c2.36,2.19,4.52,2.19,7.02,2.19l0.23,0l0.25,0c1.18,0,2.41-0.11,3.47-0.24c-0.1,1.14-0.1,2.66,0.27,4.43
		c0.52,2.48,1.97,5.22,2.91,6.81c-0.42,0.96-0.82,2.34-1.07,4.31c-0.35,2.78-0.35,3.25-0.32,5.25c0.01,0.74,0.03,1.67,0.03,3.08
		c0,6.14,4.02,10.27,10,10.27c5.35,0,9.76-4.78,11.34-9.5c1.11-3.3,1.22-5.91,1.3-7.82c0.01-0.35,0.03-0.69,0.05-1
		c0.11-1.75-0.36-3.47-0.71-4.47c0.12-0.62,0.22-1.48,0.13-2.45l-0.02-0.25c-0.14-1.52-0.31-2.3-1.67-5.16
		c-1.08-2.26-3.23-4.04-4.76-5.09c0.06-0.21,0.13-0.43,0.2-0.66c0.71-2.28-0.35-4.95-1.28-7.32c-0.02-0.06-0.05-0.12-0.07-0.17
		c0.14,0,0.28,0,0.42,0c1.17,0,2.23-0.03,3.16-0.1c2.7-0.19,4.48-0.67,5.64-1.16c0.57,0.37,1.31,0.85,2.21,1.43
		c2.43,1.55,7.6,3.56,9.77,4.1c0.78,0.19,1.68,0.29,2.68,0.29c0.18,0,0.36,0,0.53-0.01c0.09,0.48,0.21,0.98,0.34,1.45
		c0.33,1.16,1.02,2.41,1.63,3.51c0.33,0.6,0.67,1.21,0.84,1.62c0.38,0.92,0.5,1.62,0.76,3.15l0.11,0.65
		c0.44,2.57,1.98,4.52,2.15,4.73l1.42,1.74l1.84-1.28c1.01-0.7,3.45-2.48,4.29-3.79c1.19-1.86,1.88-5.33,1.88-9.54
		c0-4.45-1.92-7.83-2.95-9.64c-0.18-0.31-0.33-0.58-0.43-0.78c-0.92-1.8-2.89-3.01-3.89-3.53c-0.85-0.93-2.97-2.94-5.99-3.79
		c-1.69-0.47-4.11-0.71-7.2-0.71c-0.18,0-0.35,0-0.51,0c-0.38-0.35-1.4-1.19-2.91-1.88c0.87-0.8,1.45-1.63,1.62-1.89l1.1-1.67
		l-1.44-1.39c-0.18-0.17-1.79-1.7-3.89-2.54c-0.57-0.23-1.12-0.43-1.69-0.61c0.54-0.48,1.05-0.95,1.51-1.37
		c0.44,0.12,0.9,0.21,1.35,0.28c0.39,0.06,0.8,0.09,1.22,0.09c1.9,0,3.97-0.62,6.37-1.35c0.57-0.17,1.16-0.35,1.78-0.53
		c2.27-0.65,3.59-2.55,4.36-4.52c1.02,0.83,2.21,1.42,3.52,1.42c0.39,0,0.78-0.05,1.15-0.16c2.78-0.78,6.89-2.68,9.78-4.51
		c2.21-1.4,3.09-3.1,3.44-4.38c0.73-0.58,1.48-1.55,2.1-3.17c0.65-1.7,0.88-3.16,1.14-4.86c0.19-1.2,0.4-2.57,0.81-4.34
		c0.75-3.2,0.93-6.81,0.56-10.73c-0.37-3.83-2.7-4.95-4.05-5.28c-0.37-0.09-0.74-0.13-1.11-0.13c-1.25,0-3.6,0.54-5.36,4.16
		c-0.2,0.42-0.41,0.98-0.64,1.69c0.03-0.43,0.06-0.91,0.11-1.46c0.34-3.81-0.08-8.41-0.3-10.88c-0.05-0.56-0.09-1.01-0.11-1.31
		c-0.17-2.67-2.43-6.54-6.09-6.55c-3.75,0-4.73,3.95-5.15,5.64c-0.04,0.17-0.08,0.33-0.12,0.48c-0.55,2.03-0.74,5.41-0.79,6.77
		c-0.07,1.79-1.32,4.46-1.86,5.6l-0.04,0.09c-0.35,0.75-0.51,1.46-0.56,2.08c-0.35,0.19-0.77,0.43-1.29,0.72
		c-1.2,0.67-2.85,1.94-4.77,3.41c-0.22,0.17-0.45,0.35-0.68,0.52c0.41-0.56,0.67-0.99,0.73-1.1l0.17-0.31l0.08-0.34
		c0.03-0.14,0.79-3.47,1.13-6.33c0.32-2.74-0.19-9.49-1.75-11.52c-0.29-0.38-0.59-0.71-0.9-0.98c-0.05-1.41-0.19-3.63-0.56-5.95
		c-0.46-2.93-1.52-5.93-2.29-8.12c-0.25-0.7-0.46-1.31-0.61-1.78c-0.47-1.51-1.24-2.38-1.76-2.96c-0.1-0.11-0.23-0.26-0.29-0.34
		c-0.2-1.65-1.86-9.52-3.94-13.41c-2.19-4.1-4.42-6.86-11.81-12.41C136.07,76.76,128.09,76.69,127.76,76.69L127.76,76.69z
		 M185.4,151.34c0.07-0.07,0.13-0.15,0.2-0.23c-0.16,0.61-0.3,1.1-0.38,1.32c-0.05,0.14-0.09,0.23-0.14,0.32
		C185.25,152.24,185.34,151.76,185.4,151.34L185.4,151.34z M13.95,152.75c-0.05-0.08-0.09-0.18-0.14-0.32
		c-0.08-0.22-0.22-0.71-0.38-1.32c0.07,0.08,0.13,0.16,0.2,0.23C13.69,151.76,13.78,152.24,13.95,152.75L13.95,152.75z M16.5,156.71
		c-0.03-0.11-0.07-0.22-0.12-0.33c0.23,0.2,0.47,0.41,0.72,0.62C16.89,156.89,16.69,156.8,16.5,156.71L16.5,156.71z M181.92,157
		c0.25-0.21,0.49-0.41,0.72-0.62c-0.04,0.11-0.08,0.22-0.12,0.33C182.34,156.8,182.14,156.89,181.92,157L181.92,157z"/>
	<g>
		<path class="st8" d="M135.6,198.63c-1.15-0.26-2.26-0.47-2.98-0.5c-0.3-0.01-0.65-0.02-1.03-0.03c-2.35-0.02-5.93,0.12-5.93,0.12
			l-1.85,1.9c0,0,0.85,1.1,1.27,1.07c0.39-0.02,5.46-2.02,7.5-2.43c0.16-0.03,0.31-0.06,0.43-0.07
			C133.68,198.64,134.62,198.57,135.6,198.63z"/>
		<path class="st8" d="M66.42,198.12c-0.72,0.03-1.84,0.24-2.98,0.5c0.98-0.06,1.92,0.01,2.58,0.07c1.65,0.15,7.51,2.47,7.93,2.49
			c0.42,0.02,1.27-1.07,1.27-1.07l-1.85-1.9C73.38,198.22,68.54,198.02,66.42,198.12z"/>
		<path d="M56.23,147.86L35.6,134.11v13.7c0.42,0.46,0.93,0.91,1.49,1.22c1.57,0.85,2.12,1.49,2.12,1.49s-0.07,0.81,0.35,1.57
			c0,0,5.18,6.84,8.51,9.52h8.16V147.86z"/>
		<path d="M45.82,161.61c-0.17-0.44-0.97-2.16-3.02-3.36c-2.37-1.38-3.86-1.66-3.86-1.66s0.58-0.96-2.43-2.69
			c-0.29-0.16-0.59-0.36-0.91-0.56v8.28H45.82z"/>
		<path d="M76.85,161.61v-6.38c-0.94,0.64-1.31,1.34-1.31,1.34s-4.59-4.05-7.2-4.85c-2.61-0.8-3.54-3.67-4.83-5.76
			c-1.28-2.09-2.15-2.02-2.96-1.83c-0.81,0.2-1.49,0.98-1.49,0.98s-1.03-3.43-2.84-4.4v7.15L76.85,161.61z"/>
		<path d="M132.58,198.76c-2.05,0.41-7.11,2.4-7.5,2.43c-0.42,0.02-1.27-1.07-1.27-1.07l1.85-1.9c0,0,3.58-0.15,5.93-0.12
			l-13.48-8.99v16.51c1.13-0.91,2.01-1.88,2.01-1.88s0.77,3.32,2.49,4.91s3.04,1.55,5.86,1.55c2.82,0,5.99-0.7,5.99-0.7l0.2,1.42
			c0,0-0.75,2.17-0.07,5.39c0.67,3.22,3.37,7.28,3.37,7.28s-1.02,0.87-1.5,4.64c-0.47,3.77-0.27,2.99-0.27,8.03
			c0,2.75,0.97,4.83,2.55,6.16v-39.56L132.58,198.76z"/>
		<path d="M35.6,129.41c-0.23,0.08-0.58,0.31-1.05,0.93c-0.31,0.41-0.6,1.36-0.82,2.53l1.87,1.25V129.41z"/>
		<path d="M14.98,158.65c-0.42-0.21-0.65-0.34-0.65-0.34s0.16-0.69-0.74-2.15c-0.9-1.46-1.53-1.45-2.05-2.91
			c-0.52-1.45-2.11-8.71-3-10.54c-0.89-1.83-2.17-3.11-3.73-2.73c-1.56,0.38-2.08,1.71-2.21,3.16c-0.14,1.44-0.5,5.63,0.51,9.95
			c0.96,4.12,0.88,6.12,1.72,8.52h10.15V158.65z"/>
		<path d="M179.98,220.24c0.23,0.35,0.39,0.56,0.39,0.56s2.97-2.07,3.64-3.12c0.67-1.05,1.5-3.69,1.5-8.23
			c0-1.13-0.14-2.18-0.37-3.15l-5.15-3.44V220.24z"/>
		<path d="M138.73,189.75c0.93-0.26,1.88-0.48,2.84-0.66c4.6-0.83,12.66-0.82,16.63-0.75l-15.5-10.33
			c-0.07,0.38-0.06,0.76,0.09,1.14c0,0-1.89-0.4-1.53-2.11l-2.52-1.68V189.75z"/>
		<path d="M160.77,176.77c0,0,0.17,0.43,2.22,0.76c2.05,0.33,4.8-0.7,8.31-1.71c3.51-1.01,3.68-7.7,3.68-7.7s2.56,4.66,5,4.49v-11
			h-3.38c-0.16,0.05-0.32,0.1-0.48,0.14c-4.7,1.32-8.45,4.75-8.45,4.75s-1.01,0.18-3.15,1.03c-2.14,0.85-4.89,2.76-4.89,2.76
			s-0.02-0.05-0.27-0.08v7.88C160.19,177.33,160.77,176.77,160.77,176.77z"/>
		<path d="M55.41,115.97l-0.49-2.1c0,0,0.29-1.6,1.31-4.12V97.52c-1.81,2.05-3.11,3.6-3.11,3.6s0.9-3.28,3.11-6.46v-9.81
			c-7.51,5.64-9.26,8.14-11.12,11.62c-1.86,3.48-3.53,11.17-3.67,12.59c-0.05,0.47-0.23,0.81-0.47,1.13l14.36,9.57
			C55.57,117.11,55.41,115.97,55.41,115.97z"/>
		<polygon points="138.73,161.61 118.11,161.61 138.73,175.36 		"/>
		<path d="M147.41,208.65c0.05-1.41-0.66-3.25-1.33-4.94c-0.8-2.02-1.87-2.57-3.37-2.87c-1.5-0.3-1.95,2.17-1.95,2.17
			s0.2-1.07-1.3-2.87c-0.21-0.25-0.46-0.47-0.74-0.65v3.36L147.41,208.65z"/>
		<path d="M179.98,197.89c-0.48-0.28-0.83-0.44-0.83-0.44s-2.02-2.54-5.14-3.42c-2.48-0.69-6.59-0.65-8.17-0.6l14.14,9.43V197.89z"
			/>
		<path d="M140.14,199.82c0,0,6.86,0.65,11.52,0.32c4.66-0.32,5.91-1.57,5.91-1.57s0.65,0.43,1.78,1.16v-9.23
			c-3.67-0.3-11.31-0.6-16.58-0.06c-1.4,0.18-2.75,0.42-4.04,0.69v8.27C139.57,199.65,140.14,199.82,140.14,199.82z"/>
		<path d="M160.55,188.4c1.67-0.32,3.09-2.49,3.09-2.49s-1.4-1.35-3.12-2.05c-0.39-0.16-0.77-0.3-1.16-0.43v4.94
			C160.11,188.38,160.55,188.4,160.55,188.4z"/>
		<path d="M165.41,192.86c0,0-1.23-1.2-3.27-1.89l3.18,2.12L165.41,192.86z"/>
		<polygon points="97.48,161.61 97.48,175.36 118.11,189.11 118.11,161.61 		"/>
		<path d="M14.06,129.84c-0.1,1.66-0.81,7.37-0.42,11.83c0.4,4.45-0.02,4.47,0.8,6.41c0.19,0.44,0.37,0.78,0.54,1.05v-21.79
			C14.44,128.14,14.11,129.09,14.06,129.84z"/>
		<path d="M159.36,166.16c0.43-0.13,0.88-0.27,1.38-0.45c3.99-1.4,6.2-3.21,7.11-4.1h-8.49V166.16z"/>
		<path class="st1" d="M76.85,161.61h20.63v-11.44c-1.66,0.36-3.33,0.99-4.91,1.18c-2.23,0.27-3.76,0.13-6.28,1.03
			c-2.53,0.9-1.63,1.76-4.49,2.33c-2.86,0.57-3.79-0.23-4.82,0.43c-0.04,0.03-0.08,0.06-0.12,0.09V161.61L76.85,161.61z"/>
		<path class="st1" d="M56.23,147.86v-7.15c-0.37-0.2-0.76-0.3-1.19-0.25c-2.54,0.33-2.14,1.49-2.14,1.49l-2.57-0.23l-0.11-2.5
			c0,0,2.82-2.58,2.85-3.72c0.03-1.15-0.51-1.86-0.51-1.86s0.79-2.31,2-8.72c0.41-2.14,0.63-3.84,0.76-5.16l-14.36-9.57
			c-0.49,0.65-1.25,1.22-1.67,2.57c-0.62,2.01-2.24,5.92-2.81,9.56c-0.58,3.64-0.56,7.07-0.56,7.07s-0.11-0.06-0.33,0.02v4.7
			L56.23,147.86z"/>
		<polygon class="st1" points="56.23,147.86 56.23,161.61 76.85,161.61 76.85,161.61 		"/>
		<path class="st1" d="M22.43,161.61c-3.35-0.99-6.21-2.34-7.45-2.96v2.96H22.43z"/>
		<path class="st1" d="M58.36,92.12c6.02-5.81,10.82-9.31,15.06-11.88c-0.73-1-1.67-1.12-2.07-1.14c-0.4-0.02-7.6,0.09-15.11,5.73
			c0,0,0,0,0,0v9.81C56.84,93.78,57.54,92.91,58.36,92.12z"/>
		<path class="st1" d="M118.11,161.61L118.11,161.61v27.5l13.48,8.99c0.38,0,0.73,0.01,1.03,0.03c0.72,0.03,1.84,0.24,2.98,0.5
			c-0.98-0.06-1.92,0.01-2.58,0.07c-0.12,0.01-0.27,0.04-0.43,0.07l6.15,4.1v-3.36c-0.07-0.05-0.15-0.09-0.22-0.14
			c0.08,0.02,0.15,0.04,0.22,0.06v-8.27c-6.58,1.39-11.49,3.63-11.49,3.63s5.26-3.3,11.49-5.03v-14.39L118.11,161.61z"/>
		<path class="st1" d="M59.76,103.11c3.99-6.02,7.14-8.97,9.96-13.01c2.82-4.04,3.56-5.05,3.57-6.17c0-0.24-0.29-1.52-0.29-1.52
			s-5.59,3.87-9.78,7.76c-2.22,2.07-4.94,5.03-6.99,7.35v12.24C56.97,107.93,58.08,105.64,59.76,103.11z"/>
		<path class="st1" d="M185.14,206.3c-0.69-2.9-2.14-5-2.74-6.18c-0.5-0.98-1.63-1.77-2.41-2.23v4.97L185.14,206.3z"/>
		<path class="st1" d="M138.73,175.36l2.52,1.68c0.04-0.21,0.12-0.44,0.24-0.69c6.28-3.44,12.27-9.61,12.27-9.61s1.26,0.72,5.6-0.59
			v-4.55h-6.15c-0.03,0.07-0.04,0.11-0.04,0.11s-2.54,1.62-3.93,0.92c0.46-0.11,1.05-0.49,1.72-1.03h-12.23V175.36z"/>
		<path class="st1" d="M159.36,188.36v-4.94c-1.37-0.46-2.89-0.79-5.27-1.06c1-0.43,3.62-2.76,5.27-4.27v-7.88
			c-0.32-0.04-1.02-0.05-2.55,0.1c-0.95,0.09-3.01,1.04-5.45,1.79c-4.06,1.25-8.2,3.58-8.65,5.9l15.5,10.33
			C158.64,188.35,159.03,188.36,159.36,188.36z"/>
		<path class="st1" d="M179.98,172.61c0.12-0.01,0.25-0.02,0.37-0.05c2.54-0.71,6.42-2.5,9.14-4.22c2.73-1.73,2.54-3.95,2.54-3.95
			s1.06,0.15,2.04-2.41c0.05-0.12,0.09-0.24,0.13-0.36h-14.22V172.61z"/>
		<path class="st1" d="M160.99,200.79c2.14,1.37,7.06,3.29,9.05,3.79c2,0.5,4.66,0,4.66,0s0.2,1.92,0.62,3.42
			c0.42,1.5,1.82,3.54,2.37,4.86c0.55,1.32,0.67,2.29,1.02,4.31c0.23,1.31,0.84,2.43,1.25,3.06v-17.38l-14.14-9.43
			c-0.41,0.01-0.66,0.02-0.66,0.02l0.14-0.37l-3.18-2.12c-0.25-0.08-0.5-0.16-0.77-0.23c-0.26-0.06-0.98-0.15-2.01-0.23v9.23
			C159.82,200.04,160.37,200.39,160.99,200.79z"/>
		<path class="st1" d="M33.73,132.86c-0.44,2.27-0.66,5.4-0.44,7.23c0.33,2.77,1.09,6.08,1.09,6.08s0.47,0.83,1.22,1.64v-13.7
			L33.73,132.86z"/>
		<path class="st1" d="M152.81,236.26c1.2-3.57,1.1-6.19,1.22-8.21c0.12-2.02-0.82-4.17-0.82-4.17s0.37-1.07,0.25-2.37
			c-0.12-1.3-0.07-1.67-1.47-4.59c-1.4-2.92-5.41-5.04-5.41-5.04s0.27-1.02,0.72-2.47c0.07-0.24,0.1-0.5,0.11-0.77l-8.68-5.79v39.56
			c1.32,1.11,3.06,1.7,5.03,1.7C148.1,244.11,151.62,239.82,152.81,236.26z"/>
		<path class="st1" d="M97.48,175.36v27.5v5.98c0.71,0.05,1.4,0.07,2.04,0.07c3.43,0,8.24-0.76,11.07-1.1
			c2.83-0.33,3.67-0.09,5.57-0.94c0.66-0.3,1.34-0.77,1.95-1.26v-16.51L97.48,175.36z"/>
		<path class="st1" d="M35.6,153.34c-3.01-1.96-7.22-5.59-9.22-6.7c-2.21-1.23-2.63-1.45-2.63-1.45s0.39-1.1-0.24-2.44
			c-0.63-1.34-2.04-4.3-2.13-6.63s-0.33-4.85-0.71-6.23c-0.38-1.38-0.83-4.34-2.93-4.34c-1.15,0-2.11,0.79-2.76,1.77v21.79
			c0.58,0.93,1.02,1.01,1.02,1.01s-0.21,1.73,1.07,3.46c1.28,1.73,5.5,4.38,8.42,5.8c2.92,1.42,5.2,1.69,5.2,1.69s0.16,0.2,0.5,0.53
			h4.42V153.34z"/>
		<path class="st2" d="M167.85,161.61c0.34-0.33,0.5-0.53,0.5-0.53s2.28-0.27,5.2-1.69c2.92-1.42,7.14-4.06,8.42-5.8
			c1.28-1.73,1.07-3.46,1.07-3.46s0.74-0.13,1.56-2.06c0.82-1.93,0.4-1.95,0.8-6.41c0.4-4.45-0.31-10.17-0.42-11.83
			c-0.09-1.49-1.29-3.74-3.05-4.2h-1.2c-1.61,0.48-2.02,3.01-2.36,4.25c-0.38,1.38-0.61,3.89-0.71,6.23
			c-0.09,2.33-1.5,5.29-2.13,6.63c-0.63,1.34-0.24,2.44-0.24,2.44s-0.27,0.13-1.44,0.78c-0.73,0.9-1.76,1.55-2.92,1.81
			c-1.98,1.43-4.63,3.6-6.83,5.11c-0.73,1.48-2.14,2.57-3.83,2.86c-0.34,0.55-0.17,0.84-0.17,0.84s-0.27,0.05-0.73,0.21v4.81H167.85
			z"/>
		<path class="st2" d="M165.8,137.36c-0.1-2.58-0.57-5.6-1.16-6.75v6.75H165.8z"/>
		<path class="st2" d="M154.08,103.36h-5.12c-2.76,0-5.02-2.12-5.26-4.82c-2.11-2.41-5.32-5.99-7.89-8.38
			c-4.19-3.89-9.78-7.76-9.78-7.76s-0.29,1.28-0.29,1.52c0.02,1.12,0.75,2.13,3.57,6.17c2.82,4.04,5.96,6.99,9.96,13.01
			c3.99,6.02,4.84,10.77,4.84,10.77l-0.28,1.2h10.25V103.36z"/>
		<path class="st2" d="M148.96,92.8h2.65c-1.63-2.09-4.07-4.4-8.81-7.96c-7.51-5.65-14.71-5.75-15.11-5.73
			c-0.4,0.02-1.35,0.14-2.07,1.14c4.24,2.57,9.04,6.07,15.06,11.88c1.39,1.34,2.46,2.9,3.26,4.35
			C144.61,94.35,146.61,92.8,148.96,92.8z"/>
		<path class="st2" d="M194.21,161.61c0.84-2.4,0.77-4.4,1.72-8.52c1.01-4.32,0.65-8.5,0.51-9.95c-0.14-1.44-0.66-2.78-2.21-3.16
			c-1.56-0.38-2.84,0.9-3.73,2.73c-0.89,1.83-2.48,9.09-3,10.54c-0.52,1.45-1.16,1.45-2.05,2.91c-0.9,1.46-0.74,2.15-0.74,2.15
			s-3.63,1.97-8.1,3.3h3.38H194.21z"/>
		<path class="st3" d="M118.11,161.61L118.11,161.61h20.63h12.23c1.83-1.47,4.21-4.2,5.99-6.36c-1.71-0.88-2.88-2.65-2.88-4.7v-2.64
			h-5.12c-2.92,0-5.28-2.36-5.28-5.28c0-0.77,0.17-1.49,0.46-2.15c-0.05-0.01-0.1-0.02-0.15-0.02c-2.54-0.33-4.03,4.65-4.03,4.65
			s-0.68-0.78-1.49-0.98c-0.81-0.2-1.68-0.26-2.96,1.83c-1.28,2.09-2.22,4.96-4.83,5.76c-2.6,0.8-7.2,4.85-7.2,4.85
			s-0.4-0.76-1.43-1.43c-1.03-0.67-1.96,0.13-4.82-0.43c-2.86-0.57-1.96-1.43-4.49-2.33s-4.06-0.76-6.28-1.03
			c-2.23-0.27-4.66-1.43-6.94-1.43c-0.67,0-1.35,0.11-2.04,0.25v11.44H118.11z"/>
		<path class="st3" d="M154.08,137.36v-11.72h-9.48c1.14,5.85,1.86,8,1.86,8s-0.54,0.71-0.51,1.86c0.02,0.54,0.64,1.39,1.31,2.14
			c0.53-0.18,1.1-0.28,1.7-0.28H154.08z"/>
		<path class="st3" d="M159.36,156.8c-0.66,0.22-1.73,0.64-3.12,1.45c-2.06,1.2-2.85,2.92-3.02,3.36h6.15V156.8z"/>
		<path class="st3" d="M173.84,145.97c-0.32,0.18-0.72,0.4-1.19,0.66c-0.47,0.26-1.06,0.66-1.73,1.15
			C172.09,147.52,173.11,146.87,173.84,145.97z"/>
		<path class="st3" d="M164.09,152.89c-0.56,0.38-1.09,0.73-1.57,1.01c-1.36,0.78-1.98,1.4-2.26,1.85
			C161.94,155.46,163.35,154.38,164.09,152.89z"/>
		<path class="st3" d="M159.36,152.24c0.07-0.09,0.11-0.15,0.11-0.15c0.42-0.75,0.35-1.57,0.35-1.57s0.54-0.64,2.12-1.49
			c1.57-0.85,2.71-2.86,2.71-2.86s0.76-3.31,1.09-6.08c0.09-0.74,0.1-1.71,0.06-2.74h-1.16v-6.75c-0.05-0.1-0.11-0.2-0.16-0.27
			c-0.92-1.19-1.37-0.95-1.37-0.95s0.02-3.43-0.56-7.07c-0.1-0.65-0.24-1.3-0.4-1.95h-2.79V152.24z"/>
		<path class="st3" d="M181.29,125.55c-0.21,0-0.39,0.04-0.57,0.09h1.2C181.72,125.59,181.51,125.55,181.29,125.55z"/>
		<path class="st2" d="M148.96,147.92h5.12v2.64c0,2.05,1.17,3.82,2.88,4.7c1.19-1.44,2.1-2.62,2.4-3.02v-31.88h-15.59
			c0.13,1.23,0.35,2.73,0.7,4.56c0.05,0.25,0.09,0.48,0.14,0.72h9.48v11.72h-5.12c-0.59,0-1.16,0.1-1.7,0.28
			c0.75,0.85,1.54,1.58,1.54,1.58l-0.11,2.5l-2.57,0.23c0,0,0.38-1.11-1.99-1.47c-0.29,0.66-0.46,1.38-0.46,2.15
			C143.68,145.55,146.05,147.92,148.96,147.92z"/>
		<path class="st2" d="M162.15,120.36c-0.72-3.02-1.91-5.96-2.42-7.61c-0.11-0.34-0.23-0.63-0.37-0.88v8.49H162.15z"/>
		<path class="st3" d="M159.36,111.87c-0.68-1.25-1.64-1.63-1.76-2.81c-0.14-1.42-1.81-9.12-3.67-12.59
			c-0.69-1.28-1.36-2.44-2.32-3.66h-2.65c-2.35,0-4.35,1.54-5.03,3.67c1.39,2.5,1.98,4.65,1.98,4.65s-0.89-1.06-2.21-2.58
			c0.23,2.7,2.5,4.82,5.26,4.82h5.12v11.72h-10.25l-0.21,0.9c0,0-0.19,1.31,0.14,4.39h15.59V111.87z"/>
		<path class="st2" d="M94.18,202.86c0,2.53-1.77,4.63-4.14,5.15c2.19,0.29,4.97,0.67,7.44,0.83v-5.98H94.18z"/>
		<path class="st2" d="M30.32,172.67c0-2.52,1.77-4.63,4.14-5.15c-2.1-0.83-3.09-1.01-3.09-1.01s-3.76-3.43-8.45-4.75
			c-0.16-0.05-0.32-0.09-0.48-0.14h-7.45H4.82c0.04,0.12,0.08,0.24,0.13,0.36c0.98,2.56,2.04,2.41,2.04,2.41s-0.19,2.23,2.54,3.95
			c2.73,1.73,6.61,3.51,9.14,4.22c2.54,0.71,5.37-4.44,5.37-4.44s0.14,5.32,2.67,7.19h3.61V172.67z"/>
		<path class="st2" d="M31.18,161.61c0.68,0.66,2.09,1.84,4.42,2.98v-2.98H31.18z"/>
		<path class="st2" d="M51.62,208.14c-0.04,0.47-0.01,0.9,0.1,1.28c0.45,1.45,0.72,2.47,0.72,2.47s-4.02,2.12-5.41,5.04
			c-0.71,1.48-1.04,2.31-1.22,2.93H46c2.92,0,5.28,2.36,5.28,5.28c0,2.92-2.36,5.28-5.28,5.28h-0.89c0.1,1.61,0.33,3.52,1.11,5.84
			c1.2,3.57,4.71,7.86,9.05,7.86s7.58-2.82,7.58-7.86c0-5.04,0.2-4.26-0.27-8.03c-0.47-3.77-1.5-4.64-1.5-4.64s2.69-4.07,3.37-7.28
			c0.67-3.22-0.07-5.39-0.07-5.39l0.2-1.42c0,0,3.17,0.7,5.99,0.7c1.32,0,2.31,0.01,3.16-0.14v-1.91H51.62z"/>
		<path class="st2" d="M30.32,193.43c-1.76,0.04-3.83,0.19-5.31,0.61c-3.12,0.87-5.14,3.42-5.14,3.42s-0.1,0.05-0.27,0.13h10.72
			V193.43z"/>
		<path class="st3" d="M13.59,208.14c-0.04,0.42-0.07,0.85-0.07,1.3c0,4.54,0.82,7.18,1.5,8.23c0.67,1.05,3.64,3.12,3.64,3.12
			s1.3-1.6,1.65-3.62c0.35-2.02,0.47-2.99,1.02-4.31c0.53-1.28,1.85-3.24,2.32-4.72H13.59z"/>
		<path class="st3" d="M73.72,197.58v-5.12c0-2.92,2.36-5.28,5.28-5.28c2.92,0,5.28,2.36,5.28,5.28v5.12h4.62
			c2.92,0,5.28,2.36,5.28,5.28h3.3v-27.5v-13.75H76.85l0,0H56.23h-8.16c0.67,0.54,1.26,0.91,1.72,1.03
			c-1.39,0.7-3.93-0.92-3.93-0.92s-0.01-0.04-0.04-0.11H35.6v2.98c0.79,0.39,1.68,0.77,2.69,1.12c5.47,1.91,6.98,1.04,6.98,1.04
			s5.98,6.17,12.27,9.61c1.1,2.29-1.3,2.79-1.3,2.79c1.02-2.66-3.84-5.59-8.57-7.04c-2.44-0.75-4.5-1.7-5.45-1.79
			c-0.93-0.09-1.54-0.12-1.96-0.13c0.39,0.74,0.62,1.58,0.62,2.48v2.64H46c2.92,0,5.28,2.36,5.28,5.28c0,2.92-2.36,5.28-5.28,5.28
			h-5.12v2.47c3.99-0.06,11.99-0.07,16.57,0.75c7.38,1.33,14.33,5.69,14.33,5.69s-7.02-3.21-15.53-4.32
			c-4.75-0.49-11.41-0.29-15.37-0.03v7.16H73.72z"/>
		<path class="st3" d="M94.18,202.86H58.25c0,0.1,0.01,0.15,0.01,0.15s-0.01-0.06-0.03-0.15h-4.87c-0.14,0.25-0.28,0.53-0.41,0.85
			c-0.59,1.49-1.22,3.11-1.32,4.43h22.09v1.91c0.98-0.17,1.78-0.55,2.7-1.4c1.72-1.6,2.49-4.91,2.49-4.91s2.07,2.29,3.97,3.14
			c1.9,0.85,2.74,0.61,5.57,0.94c0.48,0.06,1.01,0.13,1.59,0.2C92.4,207.5,94.18,205.39,94.18,202.86z"/>
		<path class="st3" d="M51.28,225.14c0-2.92-2.36-5.28-5.28-5.28h-0.18c-0.17,0.61-0.19,1.02-0.25,1.66
			c-0.12,1.3,0.25,2.37,0.25,2.37s-0.95,2.14-0.82,4.17c0.04,0.71,0.06,1.5,0.12,2.37H46C48.91,230.42,51.28,228.05,51.28,225.14z"
			/>
		<path class="st2" d="M13.59,208.14h10.06c0.01-0.05,0.04-0.1,0.05-0.14c0.42-1.5,0.62-3.42,0.62-3.42s2.67,0.5,4.66,0
			c1.07-0.27,2.97-0.94,4.84-1.72H15.15C14.46,204.27,13.8,206.04,13.59,208.14z"/>
		<path class="st2" d="M94.18,202.86c0-2.92-2.36-5.28-5.28-5.28h-4.62v-5.12c0-2.92-2.36-5.28-5.28-5.28
			c-2.92,0-5.28,2.36-5.28,5.28v5.12H40.88v-7.16c-1.67,0.11-2.86,0.23-3.22,0.32c-0.79,0.19-1.48,0.48-2.06,0.77v10.56
			c0.95-0.44,1.81-0.89,2.43-1.29c2.14-1.37,3.42-2.22,3.42-2.22s1.25,1.25,5.91,1.57c4.66,0.32,11.52-0.32,11.52-0.32
			s0.68-0.2,1.64-0.46c-0.37,0.21-0.69,0.46-0.96,0.78c-1.17,1.41-1.3,2.37-1.31,2.72H94.18z M73.95,201.19
			c-0.42-0.02-6.28-2.34-7.93-2.49c-0.67-0.06-1.6-0.13-2.58-0.07c1.15-0.26,2.26-0.47,2.98-0.5c2.12-0.1,6.96,0.1,6.96,0.1
			l1.85,1.9C75.22,200.12,74.37,201.22,73.95,201.19z"/>
		<path class="st2" d="M46,185.87c2.92,0,5.28-2.36,5.28-5.28c0-2.92-2.36-5.28-5.28-5.28h-5.12v-2.64c0-0.9-0.23-1.74-0.62-2.48
			c-0.82-0.01-0.86,0.1-0.86,0.1s-1.92-1.33-3.8-2.26v9.54c0.15-0.01,0.3-0.01,0.44-0.03c2.05-0.33,2.22-0.76,2.22-0.76
			s5.19,4.94,6.69,5.59c-3.07,0.35-4.71,0.8-6.43,1.5c-1.33,0.54-2.46,1.46-2.91,1.85v0.49c0.45,0.6,1.59,1.95,2.88,2.2
			c0,0,0.93-0.03,2.4-0.06v-2.47H46z"/>
		<path class="st2" d="M58.23,202.86c-0.12-0.52-0.64-2.28-1.91-2.02c-1.26,0.25-2.21,0.69-2.96,2.02H58.23z"/>
		<path class="st3" d="M33.62,192.86l0.22,0.6c0,0-1.58-0.08-3.52-0.03v4.16H19.61c-0.66,0.33-2.34,1.28-2.97,2.54
			c-0.33,0.64-0.91,1.57-1.48,2.74h18.67c0.61-0.25,1.21-0.52,1.78-0.79v-10.56C34.35,192.15,33.62,192.86,33.62,192.86z"/>
		<path class="st3" d="M35.39,185.9c0,0,0.08,0.12,0.21,0.3v-0.49C35.47,185.83,35.39,185.9,35.39,185.9z"/>
		<path class="st3" d="M34.51,167.53c-0.02-0.01-0.03-0.01-0.05-0.02c-2.37,0.52-4.14,2.63-4.14,5.15v2.64h-3.61
			c0.3,0.22,0.64,0.4,1.02,0.51c3.27,0.94,5.88,1.89,7.88,1.75v-9.54C35.23,167.84,34.86,167.67,34.51,167.53z"/>
	</g>
</g>
<g>
	<path d="M219.99,80.86V62.84c0-2.83,1.41-4.24,4.24-4.24h72.08v18.02c0,1.7-0.32,2.83-0.95,3.39c-0.64,0.57-1.73,0.85-3.29,0.85
		H219.99z M245.85,207.01V60.72c0.71,0,2.12,0,4.24,0h15.26c2.12,0,3.53,0,4.24,0v142.04c0,1.41-0.35,2.41-1.06,2.97
		c-0.71,0.57-2.72,0.92-6.04,1.06C259.17,206.94,253.62,207.01,245.85,207.01z"/>
	<path d="M301.18,207.43c-1.56,0-3.75-0.07-6.57-0.21c-2.83-0.14-5.65-0.35-8.48-0.64l35.4-143.95c0.56-2.97,3.74-4.45,9.54-4.45
		c1.98,0,3.99,0.07,6.04,0.21c2.05,0.14,3.78,0.35,5.19,0.64l35.4,144.16c0.28,1.42-0.21,2.47-1.48,3.18
		c-1.27,0.71-4.31,1.06-9.12,1.06c-1.56,0-3.46-0.04-5.72-0.11c-2.26-0.07-4.95-0.18-8.06-0.32l-15.48-74.84
		c-0.71-3.82-1.42-7.95-2.12-12.4c-0.71-4.45-1.34-9.08-1.91-13.89c-0.57-4.8-1.06-9.4-1.48-13.78c-0.42,4.38-0.95,8.98-1.59,13.78
		c-0.64,4.81-1.27,9.43-1.91,13.89c-0.64,4.45-1.38,8.59-2.23,12.4L312,202.98c-0.29,1.41-0.95,2.51-2.01,3.29
		C308.92,207.04,305.99,207.43,301.18,207.43z M310.3,173.3v-21.41h47.91v21.41H310.3z"/>
	<path d="M384.71,207.01V62.84c0-2.83,1.41-4.24,4.24-4.24l19.5,4.24l-3.6,35.83c0.42,2.97,0.78,6.01,1.06,9.12
		c0.28,3.11,0.56,6.25,0.85,9.43c0.28,3.18,0.53,6.29,0.74,9.33c0.21,3.04,0.39,6.04,0.53,9.01c0.14,2.97,0.25,5.83,0.32,8.59
		c0.07,2.76,0.11,5.34,0.11,7.74v50.88c0,1.41-0.35,2.41-1.06,2.97c-0.71,0.57-2.69,0.92-5.94,1.06
		C398.21,206.94,392.62,207.01,384.71,207.01z M440.47,207.01l-22.47-56.82c-1.27-3.39-2.58-7.28-3.92-11.66
		c-1.34-4.38-2.62-8.97-3.82-13.78c-1.2-4.8-2.3-9.47-3.29-13.99c-0.99-4.52-1.88-8.62-2.65-12.3c-0.78-3.67-1.59-7.7-2.44-12.08
		l-13.99-13.99l1.06-13.78h18.87l22.05,55.76c1.41,3.68,2.83,7.81,4.24,12.4c1.41,4.59,2.72,9.26,3.92,13.99
		c1.2,4.74,2.3,9.29,3.29,13.67c0.99,4.38,1.83,8.34,2.54,11.87c0.71,3.53,1.48,7.35,2.33,11.45l14.42,15.48l-1.7,13.78H440.47z
		 M458.91,207.01l-19.5-4.24l3.18-40.7c-0.42-3.25-0.78-6.39-1.06-9.43c-0.28-3.04-0.53-5.97-0.74-8.8
		c-0.21-2.83-0.42-5.58-0.64-8.27c-0.21-2.68-0.35-5.33-0.42-7.95c-0.07-2.61-0.14-5.19-0.21-7.74c-0.07-2.54-0.11-5.09-0.11-7.63
		v-49.4c0-1.41,0.35-2.4,1.06-2.97c0.71-0.56,2.72-0.92,6.04-1.06c3.32-0.14,8.87-0.21,16.64-0.21v144.16
		C463.15,205.59,461.74,207.01,458.91,207.01z"/>
	<path d="M473.75,207.01V62.84c0-2.83,1.41-4.24,4.24-4.24l19.5,4.24l-3.6,35.83c0.42,2.97,0.78,6.01,1.06,9.12
		c0.28,3.11,0.56,6.25,0.85,9.43c0.28,3.18,0.53,6.29,0.74,9.33c0.21,3.04,0.39,6.04,0.53,9.01c0.14,2.97,0.25,5.83,0.32,8.59
		c0.07,2.76,0.11,5.34,0.11,7.74v50.88c0,1.41-0.35,2.41-1.06,2.97c-0.71,0.57-2.69,0.92-5.94,1.06
		C487.25,206.94,481.66,207.01,473.75,207.01z M529.51,207.01l-22.47-56.82c-1.27-3.39-2.58-7.28-3.92-11.66
		c-1.34-4.38-2.62-8.97-3.82-13.78c-1.2-4.8-2.3-9.47-3.29-13.99c-0.99-4.52-1.88-8.62-2.65-12.3c-0.78-3.67-1.59-7.7-2.44-12.08
		l-13.99-13.99l1.06-13.78h18.87l22.05,55.76c1.41,3.68,2.83,7.81,4.24,12.4c1.41,4.59,2.72,9.26,3.92,13.99
		c1.2,4.74,2.3,9.29,3.29,13.67c0.99,4.38,1.83,8.34,2.54,11.87c0.71,3.53,1.48,7.35,2.33,11.45l14.42,15.48l-1.7,13.78H529.51z
		 M547.95,207.01l-19.5-4.24l3.18-40.7c-0.42-3.25-0.78-6.39-1.06-9.43c-0.28-3.04-0.53-5.97-0.74-8.8
		c-0.21-2.83-0.42-5.58-0.64-8.27c-0.21-2.68-0.35-5.33-0.42-7.95c-0.07-2.61-0.14-5.19-0.21-7.74c-0.07-2.54-0.11-5.09-0.11-7.63
		v-49.4c0-1.41,0.35-2.4,1.06-2.97c0.71-0.56,2.72-0.92,6.04-1.06c3.32-0.14,8.87-0.21,16.64-0.21v144.16
		C552.19,205.59,550.78,207.01,547.95,207.01z"/>
	<path d="M562.79,207.01V62.84c0.85-2.83,2.26-4.24,4.24-4.24h50.88c0,6.36-0.07,11.02-0.21,13.99c-0.14,2.97-0.5,4.91-1.06,5.83
		c-0.57,0.92-1.56,1.38-2.97,1.38h-27.14v106h29.89c0,6.64-0.07,11.45-0.21,14.42c-0.14,2.97-0.5,4.84-1.06,5.62
		c-0.57,0.78-1.56,1.17-2.97,1.17H562.79z M564.49,137.47v-21.62h47.7c0,8.9-0.18,14.73-0.53,17.49c-0.35,2.76-1.52,4.13-3.5,4.13
		H564.49z"/>
	<path d="M626.39,207.01V62.84c0.71-2.83,2.12-4.24,4.24-4.24h15.26c2.12,0,3.53,1.42,4.24,4.24v139.92c0,1.41-0.35,2.41-1.06,2.97
		c-0.71,0.57-2.72,0.92-6.04,1.06C639.71,206.94,634.16,207.01,626.39,207.01z M633.38,149.76c-2.41,0-3.82-0.42-4.24-1.27
		c-0.42-0.85-0.64-2.4-0.64-4.66V62.84c0.28-2.83,1.55-4.24,3.82-4.24h18.23c8.9,0,16.43,1.24,22.58,3.71
		c6.15,2.47,10.81,6.86,13.99,13.14c3.18,6.29,4.77,15.23,4.77,26.82c0,9.61-1.17,17.49-3.5,23.64c-2.33,6.15-5.44,10.95-9.33,14.42
		c-3.89,3.46-8.2,5.9-12.93,7.31c-4.74,1.41-9.58,2.12-14.52,2.12H633.38z M650.13,127.93h4.24c2.26,0,4.17-0.71,5.72-2.12
		c1.55-1.41,2.79-4.06,3.71-7.95c0.92-3.89,1.38-9.5,1.38-16.85c0-5.09-0.32-9.25-0.95-12.51c-0.64-3.25-1.63-5.62-2.97-7.1
		c-1.35-1.48-3.15-2.23-5.41-2.23h-5.72V127.93z M682.99,207.64c-1.84,0-3.96-0.07-6.36-0.21c-2.4-0.14-4.95-0.29-7.63-0.42
		c-0.28-12.44-1.34-22.72-3.18-30.85c-1.84-8.12-3.92-14.49-6.25-19.08c-2.33-4.59-5.27-8.8-8.8-12.61
		c-0.85-1.98-0.35-3.46,1.48-4.45l13.36-7.63c2.26,0,3.74,0.78,4.45,2.33c4.8,4.66,8.8,9.65,11.98,14.95
		c3.18,5.3,6.08,12.26,8.69,20.88c2.61,8.62,4.13,19.22,4.56,31.8c0,1.98-0.6,3.36-1.8,4.13
		C692.28,207.25,688.79,207.64,682.99,207.64z"/>
	<path d="M712.67,85.95c-2.12,0-3.96-0.39-5.51-1.17c-1.56-0.78-2.69-2.44-3.39-4.98c1.7-2.83,2.86-5.05,3.5-6.68
		c0.64-1.62,1.09-3.11,1.38-4.45c0.28-1.34,0.56-2.93,0.85-4.77c-2.26-1.41-3.82-3.18-4.66-5.3s-1.27-4.59-1.27-7.42
		c0-3.82,1.27-7.07,3.82-9.75c2.54-2.68,5.79-4.03,9.75-4.03c4.95,0,8.69,1.35,11.24,4.03c2.54,2.69,3.82,6.5,3.82,11.45
		c0,4.38-0.78,8.59-2.33,12.61c-1.56,4.03-3.46,7.56-5.72,10.6c-2.26,3.04-4.45,5.44-6.57,7.21
		C715.42,85.07,713.8,85.95,712.67,85.95z"/>
	<path d="M769.48,209.13c-9.47,0-16.47-1.45-20.99-4.35c-4.52-2.89-6.78-6.18-6.78-9.86c0-2.4,0.42-5.19,1.27-8.37
		c0.85-3.18,2.19-6.11,4.03-8.8c2.26,1.98,5.16,3.64,8.69,4.98c3.53,1.34,7.21,2.01,11.02,2.01c5.79,0,9.82-1.48,12.08-4.45
		c2.26-2.97,3.39-6.92,3.39-11.87c0-3.67-0.67-7.14-2.01-10.39c-1.34-3.25-3.85-7.28-7.53-12.08l-19.29-25.86
		c-4.81-6.5-7.99-12.15-9.54-16.96c-1.56-4.8-2.33-9.54-2.33-14.2c0-9.61,3.18-17.42,9.54-23.43c6.36-6.01,15.76-9.01,28.2-9.01
		c10.74,0,18.23,1.06,22.47,3.18c4.24,2.12,6.36,5.02,6.36,8.69c0,1.98-0.42,4.13-1.27,6.47c-0.85,2.33-2.26,4.63-4.24,6.89
		c-1.13-0.85-3.46-1.77-7-2.76c-3.54-0.99-7.35-1.48-11.45-1.48c-5.23,0-9.33,0.88-12.3,2.65c-2.97,1.77-4.45,4.49-4.45,8.16
		c0,3.25,0.6,6.25,1.8,9.01c1.2,2.76,3.14,6.04,5.83,9.86l20.35,26.08c5.09,6.5,8.48,12.37,10.18,17.6
		c1.7,5.23,2.54,10.89,2.54,16.96c0,7.07-1.1,13.75-3.29,20.03c-2.19,6.29-6.04,11.42-11.55,15.37S779.8,209.13,769.48,209.13z"/>
	<path d="M853.22,207V62.63c0-1.27,0.39-2.26,1.17-2.97c0.78-0.71,2.3-1.06,4.56-1.06h20.56c6.92,0,13,1.06,18.23,3.18
		c5.23,2.12,9.54,5.69,12.93,10.71c3.39,5.02,5.97,11.84,7.74,20.46c1.77,8.62,2.65,19.36,2.65,32.22c0,15.55-0.92,28.59-2.75,39.11
		c-1.84,10.53-4.56,18.9-8.16,25.12c-3.6,6.22-7.95,10.71-13.04,13.46c-5.09,2.76-10.88,4.13-17.38,4.13H853.22z M870.39,190.68
		h9.54c2.83,0,5.51-0.77,8.06-2.33c2.54-1.55,4.84-4.63,6.89-9.22c2.05-4.59,3.67-11.34,4.88-20.25c1.2-8.9,1.8-20.7,1.8-35.4
		c0-9.75-0.46-17.81-1.38-24.17c-0.92-6.36-2.26-11.38-4.03-15.05c-1.77-3.67-4-6.22-6.68-7.63c-2.69-1.41-5.8-2.12-9.33-2.12h-9.75
		V190.68z"/>
	<path d="M935.05,207V62c0.71-2.26,1.91-3.39,3.6-3.39h10.17c1.7,0,2.83,1.13,3.39,3.39v141.62c0,1.13-0.25,1.91-0.74,2.33
		c-0.5,0.42-1.95,0.71-4.35,0.85C944.73,206.93,940.7,207,935.05,207z M940.99,146.8c-2.12,0-3.25-0.35-3.39-1.06
		c-0.14-0.71-0.21-1.91-0.21-3.6v-79.5c0-0.42,0.03-1.2,0.11-2.33c0.07-1.13,0.88-1.7,2.44-1.7h19.72c8.9,0,16.25,1.45,22.05,4.35
		c5.79,2.9,10.07,7.42,12.83,13.57c2.75,6.15,4.13,14.17,4.13,24.06c0,8.77-1.03,16.08-3.07,21.94c-2.05,5.87-4.88,10.57-8.48,14.1
		c-3.6,3.53-7.74,6.11-12.4,7.74c-4.66,1.63-9.61,2.44-14.84,2.44H940.99z M951.8,130.9h9.75c3.96,0,7.24-1.02,9.86-3.08
		c2.61-2.05,4.63-5.37,6.04-9.96c1.41-4.59,2.12-10.63,2.12-18.13c0-5.37-0.5-10.03-1.48-13.99c-0.99-3.96-2.72-6.96-5.19-9.01
		c-2.47-2.05-5.83-3.07-10.07-3.07H951.8V130.9z M991.44,207.43c-1.27,0-2.79-0.04-4.56-0.11c-1.77-0.07-3.64-0.18-5.62-0.32
		c-0.71-12.15-2.16-22.37-4.35-30.63c-2.19-8.27-4.52-14.84-7-19.72c-2.48-4.88-5.55-9.43-9.22-13.67c-0.57-1.7-0.14-2.97,1.27-3.82
		l9.33-5.09c1.7,0,2.9,0.64,3.6,1.91c4.52,5.09,8.34,10.35,11.45,15.79c3.11,5.44,6.01,12.4,8.69,20.88
		c2.68,8.48,4.38,18.66,5.09,30.53c0,1.56-0.42,2.65-1.27,3.29C998.02,207.11,995.54,207.43,991.44,207.43z"/>
	<path d="M1013.91,207V66.45c0-2.68,0.28-4.56,0.85-5.62c0.56-1.06,2.08-1.7,4.56-1.91c2.47-0.21,6.53-0.32,12.19-0.32v145.01
		c0,1.13-0.29,1.91-0.85,2.33c-0.57,0.42-2.01,0.71-4.35,0.85C1023.98,206.93,1019.85,207,1013.91,207z"/>
	<path d="M1081.75,208.49c-2.69,0-4.84-1.17-6.46-3.5c-1.63-2.33-2.86-5.26-3.71-8.8c-1.41-5.79-3.11-13.04-5.09-21.73
		c-1.98-8.69-4.06-18.02-6.25-27.98c-2.19-9.96-4.38-19.82-6.57-29.57c-2.19-9.75-4.13-18.66-5.83-26.71
		c-1.7-8.06-3.6-16.89-5.72-26.5c-0.42-1.83-0.5-3.14-0.21-3.92c0.28-0.77,1.62-1.17,4.03-1.17h13.99l17.6,82.04
		c1.27,6.22,2.4,12.47,3.39,18.76c0.99,6.29,1.91,12.23,2.76,17.81c0.85,5.58,1.62,10.64,2.33,15.16c0.56-4.52,1.24-9.57,2.01-15.16
		c0.77-5.58,1.66-11.52,2.65-17.81c0.99-6.29,1.98-12.54,2.97-18.76l15.9-76.96c0.28-1.7,0.67-2.97,1.17-3.82
		c0.49-0.85,1.59-1.27,3.29-1.27h14.84l-32.65,149.04c-2.26,0.28-4.42,0.49-6.47,0.64C1087.65,208.42,1085,208.49,1081.75,208.49z"
		/>
	<path d="M1138.78,207V66.45c0-2.68,0.28-4.56,0.85-5.62c0.56-1.06,2.08-1.7,4.56-1.91c2.47-0.21,6.53-0.32,12.19-0.32v145.01
		c0,1.13-0.29,1.91-0.85,2.33c-0.57,0.42-2.01,0.71-4.35,0.85C1148.85,206.93,1144.72,207,1138.78,207z"/>
	<path d="M1174.61,207V62c0-2.26,1.2-3.39,3.6-3.39l13.57,3.39l-2.33,24.81c0.28,1.98,0.53,4.74,0.74,8.27
		c0.21,3.53,0.39,7.46,0.53,11.77c0.14,4.31,0.28,8.8,0.42,13.46c0.14,4.66,0.28,9.12,0.42,13.36c0.14,4.24,0.21,7.99,0.21,11.24
		c0,3.25,0,5.65,0,7.21v51.52c0,1.13-0.25,1.91-0.74,2.33c-0.5,0.42-1.91,0.71-4.24,0.85C1184.46,206.93,1180.4,207,1174.61,207z
		 M1234.18,207l-24.38-58.3c-0.85-2.26-2.01-5.48-3.5-9.65c-1.48-4.17-3.07-8.87-4.77-14.1c-1.7-5.23-3.43-10.49-5.19-15.79
		c-1.77-5.3-3.39-10.21-4.88-14.73c-1.48-4.52-3.08-9.54-4.77-15.05l-9.75-10.6l1.27-10.18h13.14l23.74,57.24
		c0.99,2.41,2.23,5.76,3.71,10.07c1.48,4.31,3.08,9.05,4.77,14.2c1.7,5.16,3.39,10.32,5.09,15.48c1.7,5.16,3.25,9.93,4.66,14.31
		c1.41,4.38,3.04,9.19,4.88,14.42l10.39,12.51l-1.7,10.18H1234.18z M1246.9,207l-13.57-3.39l1.91-28.41
		c-0.29-2.12-0.5-4.91-0.64-8.37c-0.14-3.46-0.28-7.28-0.42-11.45c-0.14-4.17-0.28-8.44-0.42-12.83c-0.14-4.38-0.25-8.59-0.32-12.61
		c-0.07-4.03-0.11-7.6-0.11-10.71c0-3.11,0-5.51,0-7.21V62c0-1.13,0.25-1.91,0.74-2.33c0.49-0.42,1.94-0.71,4.35-0.85
		c2.4-0.14,6.43-0.21,12.08-0.21v145.01C1250.5,205.87,1249.3,207,1246.9,207z"/>
	<path d="M1305.83,209.13c-7.07,0-13.14-1.06-18.23-3.18c-5.09-2.12-9.22-5.79-12.4-11.02c-3.18-5.23-5.51-12.61-7-22.15
		c-1.48-9.54-2.23-21.73-2.23-36.57c0-16.67,1.06-30.21,3.18-40.6s5.16-18.44,9.12-24.17c3.96-5.73,8.73-9.65,14.31-11.77
		c5.58-2.12,11.9-3.18,18.97-3.18c6.92,0,12.4,1.1,16.43,3.29c4.03,2.19,6.04,4.7,6.04,7.53c0,1.98-0.21,3.92-0.64,5.83
		c-0.42,1.91-0.92,3.71-1.48,5.41c-1.84-1.55-4.24-2.79-7.21-3.71c-2.97-0.92-6.22-1.38-9.75-1.38c-5.37,0-10,0.99-13.89,2.97
		c-3.89,1.98-7.07,5.3-9.54,9.96c-2.47,4.66-4.28,10.95-5.41,18.87c-1.13,7.92-1.7,17.81-1.7,29.68c0,12.58,0.46,22.68,1.38,30.32
		c0.92,7.63,2.33,13.39,4.24,17.28c1.91,3.89,4.24,6.47,7,7.74c2.76,1.27,5.83,1.91,9.22,1.91c2.54,0,4.66-0.28,6.36-0.85
		c1.7-0.56,3.07-1.27,4.13-2.12s1.73-1.55,2.01-2.12v-52.79h-15.69v-10.81c0-2.4,1.34-3.6,4.03-3.6h27.77v79.71
		c-1.69,1.41-3.85,2.86-6.46,4.35c-2.62,1.48-5.8,2.72-9.54,3.71C1315.12,208.63,1310.78,209.13,1305.83,209.13z"/>
	<path d="M1408.01,209.13c-9.75,0-16.85-1.38-21.31-4.13c-4.45-2.76-6.68-5.62-6.68-8.59c0-1.7,0.35-3.71,1.06-6.04
		c0.71-2.33,1.83-4.41,3.39-6.25c2.26,2.12,5.19,3.89,8.8,5.3c3.6,1.41,7.95,2.12,13.04,2.12c7.49,0,12.83-1.98,16.01-5.94
		c3.18-3.95,4.77-9.18,4.77-15.69c0-4.8-0.88-9.25-2.65-13.36c-1.77-4.1-4.98-8.83-9.65-14.21l-21.2-24.8
		c-4.81-5.94-8.23-11.27-10.28-16.01c-2.05-4.73-3.08-9.65-3.08-14.73c0-8.9,3.14-16.18,9.43-21.84c6.29-5.65,15.3-8.48,27.03-8.48
		c10.03,0,17.17,1.03,21.41,3.07c4.24,2.05,6.36,4.56,6.36,7.53c0,1.41-0.35,3-1.06,4.77c-0.71,1.77-1.77,3.43-3.18,4.98
		c-1.42-0.99-4-2.08-7.74-3.29c-3.75-1.2-8.09-1.8-13.04-1.8c-6.36,0-11.42,1.27-15.16,3.82c-3.75,2.54-5.62,6.15-5.62,10.81
		c0,3.82,0.88,7.31,2.65,10.49c1.77,3.18,4.2,6.68,7.31,10.49l22.9,26.08c5.51,6.5,9.25,12.44,11.23,17.81
		c1.98,5.37,2.97,11.38,2.97,18.02c0,7.07-1.17,13.64-3.5,19.72c-2.33,6.08-6.22,10.95-11.66,14.63
		C1425.15,207.29,1417.62,209.13,1408.01,209.13z"/>
	<path d="M1492.17,209.13c-4.1,0-7.92-0.5-11.45-1.48c-3.53-0.99-6.75-2.82-9.65-5.51c-2.9-2.68-5.41-6.61-7.52-11.77
		c-2.12-5.16-3.75-11.94-4.88-20.35c-1.13-8.41-1.7-18.76-1.7-31.06c0-14.56,0.81-26.75,2.44-36.57c1.62-9.82,3.85-17.73,6.68-23.74
		c2.83-6.01,6.04-10.63,9.65-13.89c3.6-3.25,7.38-5.44,11.34-6.57c3.96-1.13,7.84-1.7,11.66-1.7c5.23,0,9.29,0.6,12.19,1.8
		c2.9,1.2,4.91,2.69,6.04,4.45c1.13,1.77,1.7,3.57,1.7,5.41c0,1.98-0.28,3.89-0.85,5.72c-0.57,1.84-1.2,3.39-1.91,4.66
		c-0.71-0.56-1.73-1.24-3.08-2.02c-1.34-0.77-2.93-1.48-4.77-2.12c-1.84-0.64-3.82-0.96-5.94-0.96c-2.69,0-5.34,0.46-7.95,1.38
		c-2.62,0.92-5.09,2.69-7.42,5.3c-2.33,2.62-4.35,6.33-6.04,11.13c-1.7,4.81-3.08,11.02-4.13,18.66c-1.06,7.63-1.59,17.03-1.59,28.2
		c0,10.74,0.53,19.5,1.59,26.29c1.06,6.78,2.51,12.05,4.35,15.79c1.83,3.74,4.06,6.33,6.68,7.74c2.61,1.41,5.48,2.12,8.59,2.12
		c4.1,0,7.91-0.71,11.45-2.12c3.53-1.41,6.22-2.9,8.06-4.45c0.7,1.41,1.34,3.04,1.91,4.88c0.56,1.84,0.85,3.68,0.85,5.51
		c0,2.69-1.1,5.19-3.29,7.53c-2.19,2.33-5.27,4.21-9.22,5.62C1502,208.42,1497.4,209.13,1492.17,209.13z"/>
	<path d="M1528.42,135.14v-16.11h62.54v16.11H1528.42z M1532.24,207V62c0-1.13,0.21-1.91,0.64-2.33c0.42-0.42,1.83-0.71,4.24-0.85
		c2.4-0.14,6.5-0.21,12.3-0.21v145.01c0,1.13-0.21,1.91-0.64,2.33c-0.42,0.42-1.84,0.71-4.24,0.85
		C1542.13,206.93,1538.03,207,1532.24,207z M1583.12,207V62c0-1.13,0.25-1.91,0.74-2.33c0.49-0.42,1.91-0.71,4.24-0.85
		c2.33-0.14,6.39-0.21,12.19-0.21v145.01c0,1.13-0.21,1.91-0.64,2.33c-0.42,0.42-1.84,0.71-4.24,0.85
		C1593.01,206.93,1588.91,207,1583.12,207z"/>
	<path d="M1654.35,209.13c-6.93,0-12.83-1.17-17.7-3.5c-4.88-2.33-8.83-6.39-11.87-12.19c-3.04-5.79-5.27-13.67-6.68-23.64
		c-1.41-9.96-2.12-22.58-2.12-37.84c0-18.79,1.48-33.71,4.45-44.73c2.97-11.02,7.45-18.9,13.46-23.64c6.01-4.73,13.6-7.1,22.79-7.1
		c6.78,0,12.58,1.24,17.38,3.71c4.8,2.47,8.69,6.57,11.66,12.3c2.97,5.72,5.12,13.36,6.47,22.9c1.34,9.54,2.01,21.52,2.01,35.93
		c0,19.5-1.38,34.91-4.13,46.21c-2.75,11.31-7.07,19.4-12.93,24.27C1671.27,206.69,1663.68,209.13,1654.35,209.13z M1654.99,191.32
		c5.23,0,9.29-1.94,12.19-5.83c2.9-3.89,5.02-10.25,6.36-19.08c1.34-8.83,2.02-20.38,2.02-34.66c0-14.13-0.57-25.4-1.7-33.81
		c-1.13-8.41-3.07-14.45-5.83-18.13c-2.76-3.67-6.68-5.51-11.77-5.51c-4.95,0-8.98,1.98-12.08,5.94c-3.11,3.96-5.37,10.46-6.78,19.5
		c-1.41,9.05-2.12,21.2-2.12,36.46c0,13.14,0.6,23.74,1.8,31.8c1.2,8.06,3.25,13.96,6.15,17.7
		C1646.12,189.45,1650.04,191.32,1654.99,191.32z"/>
	<path d="M1745.3,209.13c-6.93,0-12.83-1.17-17.7-3.5c-4.88-2.33-8.83-6.39-11.87-12.19c-3.04-5.79-5.27-13.67-6.68-23.64
		c-1.41-9.96-2.12-22.58-2.12-37.84c0-18.79,1.48-33.71,4.45-44.73c2.97-11.02,7.45-18.9,13.46-23.64c6.01-4.73,13.6-7.1,22.79-7.1
		c6.78,0,12.58,1.24,17.38,3.71c4.8,2.47,8.69,6.57,11.66,12.3c2.97,5.72,5.12,13.36,6.47,22.9c1.34,9.54,2.01,21.52,2.01,35.93
		c0,19.5-1.38,34.91-4.13,46.21c-2.75,11.31-7.07,19.4-12.93,24.27C1762.22,206.69,1754.62,209.13,1745.3,209.13z M1745.93,191.32
		c5.23,0,9.29-1.94,12.19-5.83c2.9-3.89,5.02-10.25,6.36-19.08c1.34-8.83,2.02-20.38,2.02-34.66c0-14.13-0.57-25.4-1.7-33.81
		c-1.13-8.41-3.07-14.45-5.83-18.13c-2.76-3.67-6.68-5.51-11.77-5.51c-4.95,0-8.98,1.98-12.08,5.94c-3.11,3.96-5.37,10.46-6.78,19.5
		c-1.41,9.05-2.12,21.2-2.12,36.46c0,13.14,0.6,23.74,1.8,31.8c1.2,8.06,3.25,13.96,6.15,17.7
		C1737.06,189.45,1740.98,191.32,1745.93,191.32z"/>
	<path d="M1800.62,207V63.48c0-1.55,0.28-2.68,0.85-3.39c0.56-0.71,2.05-1.13,4.45-1.27c2.4-0.14,6.43-0.21,12.08-0.21v132.29h36.46
		v12.72c0,1.42-0.32,2.33-0.95,2.76c-0.63,0.42-1.45,0.64-2.44,0.64H1800.62z"/>
</g>
</svg>
